/* XPM */
static char *_2185ac1bd2045cca28c8564863f0b243Q5MZhH6koycgKmh[] = {
/* columns rows colors chars-per-pixel */
"64 64 189 2 ",
"   c #ED5F4E",
".  c #F75C45",
"X  c #FD5C46",
"o  c #F55E4C",
"O  c #FE5C4B",
"+  c #F55F52",
"@  c #FD5D51",
"#  c #DD645B",
"$  c #D56C5E",
"%  c #DC6B5C",
"&  c #EE644E",
"*  c #FF6045",
"=  c #F3624E",
"-  c #FC614C",
";  c #E66554",
":  c #EC6454",
">  c #E36955",
",  c #EA6956",
"<  c #E56559",
"1  c #EB645A",
"2  c #E36A5B",
"3  c #ED6A5C",
"4  c #F36253",
"5  c #FB6152",
"6  c #F16559",
"7  c #F1685B",
"8  c #ED705E",
"9  c #D46E63",
"0  c #DC6D63",
"q  c #CF726B",
"w  c #D47464",
"e  c #DD7063",
"r  c #D4746C",
"t  c #DE7768",
"y  c #D1796B",
"u  c #D47C73",
"i  c #DA7D76",
"p  c #E36C62",
"a  c #E96963",
"s  c #E96F6A",
"d  c #EF7769",
"f  c #E57B6D",
"g  c #ED7D6F",
"h  c #F0756D",
"j  c #F77E6B",
"k  c #FA7B6A",
"l  c #E77C74",
"z  c #EA7A72",
"x  c #D88177",
"c  c #DD867B",
"v  c #DC887D",
"b  c #E78374",
"n  c #E0877F",
"m  c #EB807A",
"M  c #E1897D",
"N  c #EB897E",
"B  c #F68275",
"V  c #F1877A",
"C  c #F38F7F",
"Z  c #F9897B",
"A  c #DA8280",
"S  c #DB8C82",
"D  c #DD8C89",
"F  c #E38C82",
"G  c #EA8E81",
"H  c #F48B84",
"J  c #E39185",
"K  c #E6948C",
"L  c #E69A8D",
"P  c #F29087",
"I  c #FC9286",
"U  c #FE9C8D",
"Y  c #EC9790",
"T  c #E49996",
"R  c #FB9590",
"E  c #F39991",
"W  c #FC9C92",
"Q  c #EEA194",
"!  c #FEA194",
"~  c #F4A59B",
"^  c #FFA59C",
"/  c #F7AB9E",
"(  c #E2A6A6",
")  c #F5ACA2",
"_  c #FAABA6",
"`  c #FFAFAC",
"'  c #FFB1A2",
"]  c #FFB6AC",
"[  c #FFB9AC",
"{  c #FFBDB4",
"}  c #FFC3B2",
"|  c #FFC4BB",
" . c #FFC9BE",
".. c #FFC6C4",
"X. c #FFCCC3",
"o. c #FFCCC9",
"O. c #FFD3CB",
"+. c #FFD8CC",
"@. c #FFD7D3",
"#. c #FFDBD4",
"$. c #FFDEDA",
"%. c #FFE2D6",
"&. c #FFE3DC",
"*. c #FFEADE",
"=. c #FFE6E2",
"-. c #FFEBE4",
";. c #FFE6E8",
":. c #FFEEEA",
">. c #FFF1E6",
",. c #FFF3EC",
"<. c #FFEFF0",
"1. c #FFF5F3",
"2. c #FFF9F3",
"3. c #FFFBF3",
"4. c #FFF9F4",
"5. c #FFFBF5",
"6. c #FFF8F7",
"7. c #FFFAF6",
"8. c #FFFBF6",
"9. c #FFFAF7",
"0. c #FCFDF7",
"q. c #FFFAF5",
"w. c #FFF7F9",
"e. c #FFF7FA",
"r. c #FFF6FA",
"t. c #FFF9F8",
"y. c #FFF8F9",
"u. c #FFFBF8",
"i. c #FFFAF9",
"p. c #FFF9FB",
"a. c snow",
"s. c #FFFBFA",
"d. c #F9FEFA",
"f. c #FBFFFA",
"g. c #FFFCF8",
"h. c #FFFCF9",
"j. c #FDFEF9",
"k. c #FFFEF8",
"l. c #FFFFF8",
"z. c #FDFDFB",
"x. c #FFFCFA",
"c. c #FFFDFA",
"v. c #FEFDFB",
"b. c #FFFCFB",
"n. c #FCFFFA",
"m. c #FDFFFA",
"M. c #FCFEFB",
"N. c #FCFFFB",
"B. c #FFFEFA",
"V. c #FEFFFA",
"C. c #FFFFFA",
"Z. c #FFFEFB",
"A. c #FEFFFB",
"S. c #FFFFFB",
"D. c #FFFBFC",
"F. c #FFFBFF",
"G. c #FBFDFC",
"H. c #F9FFFD",
"J. c #FBFFFC",
"K. c #FBFFFD",
"L. c #FBFFFF",
"P. c #FDFDFD",
"I. c #FEFCFD",
"U. c #FFFCFD",
"Y. c #FFFDFD",
"T. c #FDFFFC",
"R. c #FCFEFD",
"E. c #FCFFFD",
"W. c #FEFEFC",
"Q. c #FFFEFC",
"!. c #FFFEFD",
"~. c #FEFFFD",
"^. c #FFFFFD",
"/. c #FCFDFF",
"(. c #FDFDFF",
"). c #FCFCFE",
"_. c #FFFCFE",
"`. c #FFFDFE",
"'. c #FEFCFF",
"]. c #FFFCFF",
"[. c #FFFDFF",
"{. c #FDFEFF",
"}. c #FCFFFF",
"|. c #FEFEFE",
" X c #FEFEFF",
".X c #FFFEFF",
"XX c #FEFFFF",
"oX c white",
"OX c #FFFFFE",
/* pixels */
"oXoXoXoXoXoXoXoXoXoXoXoXoXoXoXoXoXoXoXoXoXoXoX).).).oXoXoXoXoXoXoXK.oX).oXoXoXoXc.c.oXK.oXoXoXoXoXoXoXoXoXoXoXoXoXoXoXoXoXoXoXoX",
"oXoXoXoXoXoXoXoXoXoXoXoXoXoXoXoX).oXoXoXK.oXoXoXoXoX).oXoXoXoXoXoXoXoXoXoX).oXc.oXK.oXoXoXoXoXoXoXoXoXoXoXoXoXoXoXoXoXoXoXoXoXoX",
"oXoXoXoXoXoXoXoXoXoXoXoXoXoXoXoXoXoXoXoXoXK.oXK.oXoXoXoXoXoXoXoXf.f.oXoXoXoXoXoXoXoXoXoXoXoXoXc.oXoXoXoXoXoXoXoXoXoXoXoXoXoXoXoX",
"oXoXoXoXoXoXoXoXoXoXoXoXoXoXoXoXoXoXoXoXoXK.oXoXoXoXoXoXoXoXoXK.f.f.c.c.).oXoXoXK.K.oXoXoXoXoXoXoXoXoXoXoXoXoXoXoXoXoXoXoXoXoXoX",
"oXoXoXoXoXoXoXoXoXoXoXoXoXoXoXoXoXoXoXoXc.oXoXc.oXoXK.oXoXoXoXoXoXoX).).).oXc.K.K.oXoXoXoXoXc.oXoXoXoXoXoXoXoXoXoXoXoXoXoXoXoXoX",
"oXoXoXoXoXoXoXoXoXoXoXoXoXoXoXoXoXoXoX).oXoXc.oXoXc.oXoXoXoXoXoX).).oXoXoXc.oXK.K.oXoXc.c.c.c.c.oXoXoXoXoXoXoXoXoXoXoXoXoXoXoXoX",
"oXoXoXoXoXoXoXoXoXoXoXoXoXoXoXoXoX).oXoXoXK.a.oXc.c.K.oXoXoXoX).oXoXK.K.c.oXoXoXoXK.oXoXoXoXoXoXoXoXoXoXoXoXoXoXoXoXoXoXoXoXoXoX",
"oXoXoXoXoXoXoXoXoXoXoXoXoXoXoXoXoXoX).oXoXoXoX).oXoXK.K.oXoXoXoX).oXK.K.K.c.oXoXoXK.K.oXoXoXoXoXoXoXoXoXoXoXoXoXoXoXoXoXoXoXoXoX",
"oXoXoXoXoXoXoXoXoXoXoXoXoXoXoXoXoX).).oXoXoXoXoXoXoXK.K.oX).oXoXoXoXK.K.oXoXoX).oXoXoXoXoXoXoXoXoXoXoXoXoXoXoXoXoXoXoXoXoXoXoXoX",
"oXoXoXoXoXoXoXoXoXoXoXoXoXoXoXoXoXK.).oXoXoXG.oXK.oXK.oX).).).oXoXoXG.oXG.oXG.oXoXc.oXoXoXoXK.oXoXoXoXoXoXoXoXoXoXoXoXoXoXoXoXoX",
"oXoXoXoXoXoXoXoXoXoXoXoXoXoXoXoXK.K.K.oX).).oXoXK.K.oXoXoXoXoXc.f.c.oXoXoXoXoXc.c.c.c.K.oXoXoXoXoXoXoXoXoXoXoXoXoXoXoXoXoXoXoXoX",
"oXoXoXoXoXoXoXoXoXoXoXoXoXoXoXoXf.K.K.oXoX).oX).K.K.oXoXc.oXc.c.2.,.6.1.oXoX).c.c.c.oXoXK.oXoXoXoXoXoXoXoXoXoXoXoXoXoXoXoXoXoXoX",
"oXoXoXoXoXoXoXoXoXoXoXoXoXoXoXoXoXc.K.c.).oX).oXoXoXoXoXc.c.c.,.r 9 #.1.).oX).oXoXoXoXoXoX).oXoXoXoXoXoXoXoXoXoXoXoXoXoXoXoXoXoX",
"oXoXoXoXoXoXoXoXoXoXoXoXoXoXoXoXa.c.c.oXoXoX).).oXoXG.c.c.0.6...a : v :.a.oXoXoXoXoXoXoX).).oXc.oXoXoXoXoXoXoXoXoXoXoXoXoXoXoXoX",
"oXoXoXoXoXoXoXoXoXoXoXoXoXoXoXa.a.a.c.c.oX).oXoXoXoXc.c.0.6.<.T : : w :.1.oXoXK.K.oXoXoXoXoXc.c.oXoXoXoXoXoXoXoXoXoXoXoXoXoXoXoX",
"oXoXoXoXoXoXoXoXoXoXoXoXoXoX6.1.( ..1.c.c.oX).oXoXoXK.f.oXa.<.c : : $ $.1.).a.2.2.1.1.1.w.a.0.c.c.oXoXoXoXoXoXoXoXoXoXoXoXoXoXoX",
"oXoXoXoXoXoX).oXoXK.oXK.K.a.,.S $ 9 -.6.oXoX).oXoXoXf.K.).w.<.i 4 + : ] 1.a.>.*. .^ P E | -.6.c.oXoXoXoXoXoXoXoXoXoXoXoXoXoXoXoX",
"oXoXoXoXoXoX).).K.f.oXoXK.a.-.9 4 : ) ,.c.oX).).).oXK.oXoXa.,.x + @ + h -.#.L w % 1 7 1 $ ~ 2.oXoXoXoXoXoXoXoXoXoXoXoXoXoXoXoXoX",
"K.oXoXoXoXoXoXoXoXf.oXoXoXa.:.9 4 6 y >.2.c.oXoXoXoXf.oXoX6.:.v : O X = j % : : 5 o o o + 0 =.c.oXoXoXoXoXoXoXoXoXoXoXoXoXoXoXoX",
"oXoXoXoXoXoX).oXoXc.).oXoX1.:.9 : 4 $ *.2.oXoXoXG.oXoXoXa.a.,.S : X X * - - O O O O 5 - o e -.c.oXoXoXoXoXoXoXoXoXoXoXoXoXoXoXoX",
"oXoXoXoXoXoXoXoXf.oXoXoXoXw.:.w & = 2 } 1.oXoXoXoXoXc.f.oXa.>.Q : O * . O X X O O @ o : e / 1.oXoXoXoXoXoXoXoXoXoXoXoXoXoXoXoXoX",
"oXoXoXoXoXoXoXoXoXc.c.oX).w.:.y , - & C 1.oX).c.oXc.c.2.1.1.>.[ : - . - o - = 4 < a p G | ,.a.oXoXoXoXoXoXoXoXoXoXoXoXoXoXoXoXoX",
"oXK.oXoXoXK.oXoXc.oXoXoXoXw.:.u : X O p :.oXoXoXc.6.1.=.#.&.>.| 1 O - - o 3 N { O.-.,.,.1.a.).oXoXoXoXoXoXoXoXoXoXoXoXoXoXoXoXoX",
"oXoXoX).oXoXoXoXoXoXc.a.oXa.,.K : O O 1 =.1.a.1.1.$.K r 0 9 ) } 6 @ O O 4 ! -.1.6.c.c.oX).).oXK.oXoXoXoXoXoXoXoXoXoXoXoXoXoXoXoX",
"oXoXoX).oXc.oXoXoXoXoXoXoXa.,.{ ; X O 1 } >.,.=.^ p 1 : + : 0 ^ + O O O o B :.a.a.oXG.oX).).).oXoXoXoXoXoXoXoXoXoXoXoXoXoXoXoXoX",
"oXoXoXoXoXc.K.oXK.K.oXc.oXoX6. .> - O 6 V  .G 0 1 + @ O O 5 < U + X O 5 @ p :.a.oXoXoXoX).).oXoXoXoXoXoXoXoXoXoXoXoXoXoXoXoXoXoX",
"oXoX).oXoXc.oXoXK.oXf.oXoXc.a.O.< O O . = & :   = - O X X 4 % [ 5 O O O 5 > X.2.c.K.K.oXoXoXG.K.oXoXoXoXoXoXoXoXoXoXoXoXoXoXoXoX",
"oXoX).oXc.c.oXoXoXoXoXf.oXc.a.$.a O X X X X - O O O O - 4 2 J %.k - - O O 1 / ,.6.f.G.oXoXK.oXoXoXoXoXoXoXoXoXoXoXoXoXoXoXoXoXoX",
"K.oXoX).oXc.oXoXoXoXoXc.oX).oX>.2 O * - O O X O X - O + p Y -.>.! 6 o O O + S :.e.).oXoXoXoXc.c.c.oXoXoXoXoXoXoXoXoXoXoXoXoXoXoX",
"K.oXoX).c.c.c.oX).oXoXoXoXoXoX1.W 1 . O @ O - = = : < l ..<.1.1.| 2 = O O o f -.1.).).w.oXoXc.c.oXoXoXoXoXoXoXoXoXoXoXoXoXoXoXoX",
"K.oXoXoXc.c.oXoXoX).).oXoXoX).1.=.u , o @ @ 4 > e F | -.r.w.oX1.*.$ 4 O O 5 : I X.>.6.oX).).K.f.c.oXoXoXoXoXoXoXoXoXoXoXoXoXoXoX",
"K.K.oXoXoXc.oXoXoXoXoXoX).oXoX).1.$.F p a s I { %.,.1.c.).).a.1.*.Z 4 O X O - : 0 Q >.).e.).d.f.oXoXoXoXoXoXoXoXoXoXoXoXoXoXoXoX",
"oXoXoXoXoXoXoXoXoXoXoXoXoXoXoXoX).a.<.=.;.:.1.,.,.6.).oXoXa.1.&.g 4 @ O X O @ + 4 % | 1.oXoXoXc.oXoXoXoXoXoXoXoXoXoXoXoXoXoXoXoX",
"oXoXoXoXoXoXoXoXoXoXoXoXoXoXoXoXoXoXoX).oXoXoXc.oXoXG.c.2.:._ 0 : - O @ + o O O X & x ,.a.G.a.oXoXoXoXoXoXoXoXoXoXoXoXoXoXoXoXoX",
"oXoXoXoXoXoXoXoXoXoXoXoXoXoXoXoXc.c.c.f.oXoXoXoXoXc.c.2.+.t 2 & o - + 4 % 2 5 O X - 0 -.a.oXoXK.oXoXoXoXoXoXoXoXoXoXoXoXoXoXoXoX",
"oXoXoXoXoXoXoXoXoXoXoXoXoXoXoXoXoXc.d.f.K.K.oXoXoXa.,.{ % : = - 4 : a R O.%.& X X = % @.1.K.oXoXoXoXoXoXoXoXoXoXoXoXoXoXoXoXoXoX",
"oXoXoXoXoXoXoXoXoXoXoXoXoXoXoXoXoXoXc.c.oXc.oXoXK.a.X.$ 7 o : > w { :.1.1.-.8 X X - % ..w.oXoXf.oXoXoXoXoXoXoXoXoXoXoXoXoXoXoXoX",
"oXoXoXoXoXoXoXoXoXoXoXoXoXoXoXoXoXoXoXoXc.c.oXoXoXw.~ 2 : 1 %  .-.1.e.oXG.1.2 - O o %  .r.oXoXoXoXoXoXoXoXoXoXoXoXoXoXoXoXoXoXoX",
"oXoXoXoXoXoXoXoXoXoXoXoXoXoXoXK.K.oX).).a.a.oXoXoX1.O.$ 9 o.<.1.6.6.oXK.oX1.m - O 4 >  .1.a.oXc.oXoXoXoXoXoXoXoXoXoXoXoXoXoXoXoX",
"oXoXoXoXoXoXoXoXoXoXoXoXoXoXoXoXK.K.oXoXoXoX).oXoX1.! 2 I =.r.oXoXoXoXoXoX1.I + + o : H &.6.6.oXoXoXoXoXoXoXoXoXoXoXoXoXoXoXoXoX",
"oXoXoXoXoXoXoXoXoXoXoXoXoXoXoXoXK.K.oX).oXK.oXoX).1.# = : ' >.oXoXoXa.oXa.>.' & O O = < S :.0.c.c.oXoXoXoXoXoXoXoXoXoXoXoXoXoXoX",
"oXoXoXoXoXoXoXoXoXoXoXoXoXoXoXoXK.K.oXoXoXK.K.K.).:.2 - = 0 *.6.0.6.a.1.:.] 2 5 O O O 7 9 #.1.c.oXoXoXoXoXoXoXoXoXoXoXoXoXoXoXoX",
"oXoXoXoXoXoXoXoXoXoXoXoXoXoXoXc.oXoXoXoXoXK.K.K.K.1.p + O ; u :.c.c.1.&.l 1 o O O X X : $ @.1.oXoXoXoXoXoXoXoXoXoXoXoXoXoXoXoXoX",
"oXoXoXoXoXoXoXoXoXoXoXoXoXoXoXoXc.c.a.oXoXoXK.K.oXr.H + O 5 p  .1.1.X.9 4 O O O O X = % c >.a.oXoXoXoXoXoXoXoXoXoXoXoXoXoXoXoXoX",
"oXoXoXoXoXoXoXoXoXoXoXoXoXoXoXoXoXoXoX).oXc.oXf.K.1.{ < 5 - & d &.| % & - X O @ - 4 % v &.,.c.oXoXoXoXoXoXoXoXoXoXoXoXoXoXoXoXoX",
"oXoXoXoXoXoXoXoXoXoXoXoXoXoXoXoXoXoXoXoXoXc.c.f.f.6.&.0 o O O & W % = X - 4 1 > 2 U X.:.6.c.).oXoXoXoXoXoXoXoXoXoXoXoXoXoXoXoXoX",
"oXoXoXoXoXoXoXoXoXoXoXoXoXoXoXoXoXoXoXoXoXoXoXc.c.a.,.u 6 O O O 5 + O - : # F ..>.,.6.0.oXoXoXG.oXoXoXoXoXoXoXoXoXoXoXoXoXoXoXoX",
"oXoXoXoXoXoXoXoXoXoXoXoXoXoXoXoXK.oXoXoXoXoXoXoXoXa.1. .2 o O O + : : < m #.:.1.).oXc.oXoXK.).oXoXoXoXoXoXoXoXoXoXoXoXoXoXoXoXoX",
"oXoXoXoXoXoXoXoXoXoXoXoXoXoXoXoXoXoXoXoXoXoXoXoXoX).a.>.c < 4 = z q D @.,.1.a.a.c.oXoXoX).oXK.oXoXoXoXoXoXoXoXoXoXoXoXoXoXoXoXoX",
"oXoXoXoXoXoXoXoXoXoXoXoXoXoXoXoXoXoX).oXoXc.oXoXoXK.oX1.=.G $ b $.,.,.6.a.oXK.K.oXoXc.c.oXoXoXK.oXoXoXoXoXoXoXoXoXoXoXoXoXoXoXoX",
"oXoXoXoXoXoXoXoXoXoXoXoXoXoXoXoX).).oXoXf.f.oXoX).).oX).r.1.-.-.,.6.2.0.c.oXoXoXoXoXc.oXoXoXoXoXoXoXoXoXoXoXoXoXoXoXoXoXoXoXoXoX",
"oXoXoXoXoXoXoXoXoXoXoXoXoXoXoXoXoXoXoXoXK.K.c.oX).oXoXoX).oX).oX0.0.c.c.G.oXoX).oXoXoXoXc.oXoXoXoXoXoXoXoXoXoXoXoXoXoXoXoXoXoXoX",
"oXoXoXoXoXoXoXoXoXoXoXoXoXoXoXoXoXK.oXoXK.oXoXoXoX).K.oXG.oX).).oXd.f.oX).).).).oXoXK.K.K.oXoXoXoXoXoXoXoXoXoXoXoXoXoXoXoXoXoXoX",
"oXoXoXoXoXoXoXoXoXoXoXoXoXoXoXoXoXoXK.oXoXoX).oXoXoXK.K.K.oX).G.oXoXoXoXoX).).).oXK.K.K.c.oXoXoXoXoXoXoXoXoXoXoXoXoXoXoXoXoXoXoX",
"oXoXoXoXoXoXoXoXoXoXoXoXoXoXoXoXc.c.oXoX).).oXoXoXf.f.f.f.c.oXoXoX).oXoX).).oXoXoXc.oXoXoXc.oX).oXoXoXoXoXoXoXoXoXoXoXoXoXoXoXoX",
"oXoXoXoXoXoXoXoXoXoXoXoXoXoXoXc.c.c.oXoX).oXoXoXoXc.c.f.oXc.c.oXoX).oX).oXoXoXK.oXoXoXc.oXoX).oXoXoXoXoXoXoXoXoXoXoXoXoXoXoXoXoX",
"oXoXoXoXoXoXoXoXoXoXoXoXoXoXoXoXoXoXc.oXoXoXK.oXoXoXoX).oXoXoXoXoXoXoXoXK.oXK.oXoXoXc.oXoXoXoXoXoXoXoXoXoXoXoXoXoXoXoXoXoXoXoXoX",
"oXoXoXoXoXoXoXoXoXoXoXoXoXoXoXoX).oXoXoXoXoXoXoXoXoX).oXoXoX).oXoXoXK.oXoXoXoXoXc.oXoXc.oXoXoXoXoXoXoXoXoXoXoXoXoXoXoXoXoXoXoXoX",
"oXoXoXoXoXoXoXoXoXoXoXoXoXoXoXoXoXoX).oX).).oXK.K.K.).oXoXoXoXoXoXK.oXc.oXc.oXoXoXoXoXoXoXK.K.K.K.oXoXoXoXoXoXoXoXoXoXoXoXoXoXoX",
"oXoXoXoXoXoXoXoXoXoXoXoXoXoXoXoXoXoXoXoX).).oXoXK.oXoXoXoXoXoXc.c.oXc.oXc.oXoXc.oXoXoXoXK.oXoXoXoXoXoXoXoXoXoXoXoXoXoXoXoXoXoXoX",
"oXoXoXoXoXoXoXoXoXoXoXoXoXoXoXoXK.K.K.oXc.oXoXK.oXoX).oXoXoXoXoXf.oXoXoXoXoXoXoXoXoXoXoXoX).oXoXoXoXoXoXoXoXoXoXoXoXoXoXoXoXoXoX",
"oXoXoXoXoXoXoXoXoXoXoXoXoXoXoXK.K.f.K.oXoXoXoXoXoXoX).).).oXK.K.oXoXoXc.oXc.oXoXoXoXoXoXoXoXoXc.oXoXoXoXoXoXoXoXoXoXoXoXoXoXoXoX",
"oXoXoXoXoXoXoXoXoXoXoXoXoXoXoXoXoXoXoXoXoXoXoXoXoXoXoXoXoXoXoXoXoXoXoXoXoXoXoXoXoXoX).oXoXoXoXoXoXoXoXoXoXoXoXoXoXoXoXoXoXoXoXoX",
"oXoXoXoXoXoXoXoXoXoXoXoXoXoXoXoXoX).oX).).).oXoXK.oXoXoXoXoXoXoXoXoXoXoXoXoXoXoX).oXoXoXoXoXK.f.oXoXoXoXoXoXoXoXoXoXoXoXoXoXoXoX"
};