/* XPM */
static char *b580a9cb343b443fda8613cfd1d8d185S1Q5LcFgGxgbB40i[] = {
/* columns rows colors chars-per-pixel */
"64 64 192 2 ",
"   c #D6B62D",
".  c #D9B52E",
"X  c #D6B92E",
"o  c #D8B82E",
"O  c #CFB63A",
"+  c #D6B533",
"@  c #DAB633",
"#  c #D6B933",
"$  c #DAB833",
"%  c #D4B63C",
"&  c #DAB63A",
"*  c #D5B93B",
"=  c #DAB93B",
"-  c #CFB443",
";  c #CFB941",
":  c #CDB54C",
">  c #D4B643",
",  c #D9B642",
"<  c #D5B944",
"1  c #D9B844",
"2  c #D2B54B",
"3  c #D8B24F",
"4  c #D3B84C",
"5  c #CEB554",
"6  c #CCB854",
"7  c #CDB55B",
"8  c #CEBA5D",
"9  c #D3B652",
"0  c #D2B954",
"q  c #D3B559",
"w  c #D2BA5C",
"e  c #DABD5F",
"r  c #CBB662",
"t  c #CDB961",
"y  c #CCB569",
"u  c #CDBA6B",
"i  c #D1B662",
"p  c #D5BC64",
"a  c #D2B768",
"s  c #D2BD6D",
"d  c #C5B874",
"f  c #CDBA74",
"g  c #CABD79",
"h  c #D3BC73",
"j  c #D6C263",
"k  c #DFCD67",
"l  c #D7C66C",
"z  c #D9C46D",
"x  c #D6C374",
"c  c #D9C574",
"v  c #D2C179",
"b  c #DECB7E",
"n  c #E2CB6E",
"m  c #E0CA74",
"M  c #E6CD79",
"N  c #E6D770",
"B  c #E8D27D",
"V  c #D9C481",
"C  c #DECD84",
"Z  c #D3C388",
"A  c #DCCC8E",
"S  c #DFD192",
"D  c #E2CE89",
"F  c #E3D385",
"G  c #EBD48E",
"H  c #E2D194",
"J  c #E7DA96",
"K  c #EEDB97",
"L  c #E5D59A",
"P  c #EAD69D",
"I  c #F2DD94",
"U  c #F0DD9B",
"Y  c #F4E69D",
"T  c #ECDDA4",
"R  c #ECDDA9",
"E  c #F2DEA3",
"W  c #F0DEAC",
"Q  c #EDE0A9",
"!  c #F2E5A1",
"~  c #FAE6A5",
"^  c #FEEBA7",
"/  c #F3E3AD",
"(  c #F9E5A9",
")  c #FCEBAD",
"_  c #F4E5B4",
"`  c #FEECB1",
"'  c #F7E6B8",
"]  c #F5EABA",
"[  c #FCEDBC",
"{  c #FEF1B3",
"}  c #FFF3BD",
"|  c #FFFBB9",
" . c #F6E9C6",
".. c #FEEECD",
"X. c #FEF5C5",
"o. c #FFFCC4",
"O. c #FFF3CC",
"+. c #FFFCCA",
"@. c #FFF6D3",
"#. c #FFFED3",
"$. c #FEF7DA",
"%. c #FFFDDC",
"&. c #FFFFE3",
"*. c #FFFFE1",
"=. c #FFFBE7",
"-. c #FFFDE5",
";. c #FFFEE4",
":. c #FFFFE4",
">. c #FFFFE5",
",. c #FFFFE6",
"<. c #FFFFE7",
"1. c #FFFEE3",
"2. c #FFFFE8",
"3. c #FFFDEA",
"4. c #FFFEEB",
"5. c #FFFCEC",
"6. c #FFFFEC",
"7. c #FFFFED",
"8. c #FFFFEF",
"9. c #FFFFEE",
"0. c #FFFFEC",
"q. c ivory",
"w. c #FFFFF1",
"e. c #FFFEF1",
"r. c #FFFDF3",
"t. c #FFFFF3",
"y. c #FFFEF3",
"u. c #FEFBF6",
"i. c #FFFDF4",
"p. c #FFFFF4",
"a. c #FFFEF5",
"s. c #FFFFF6",
"d. c #FFFEF7",
"f. c #FEFFF7",
"g. c #FFFFF4",
"h. c #FBFBF9",
"j. c gray98",
"k. c #FEFDF8",
"l. c #FFFCF9",
"z. c #FEFDF9",
"x. c #FFFDF9",
"c. c #FDFEF8",
"v. c #FDFEF9",
"b. c #FFFFF8",
"n. c #FFFEF9",
"m. c #FEFFF9",
"M. c #FDFDFB",
"N. c #FFFCFB",
"B. c #FEFDFB",
"V. c #FCFFFB",
"C. c #FFFEFA",
"Z. c #FEFFFA",
"A. c #FFFFFA",
"S. c #FFFEFB",
"D. c #FEFFFB",
"F. c #FFFFFB",
"G. c #FDFBFC",
"H. c #FFFBFD",
"J. c #FDFBFE",
"K. c #FFFBFF",
"L. c #FBFDFC",
"P. c #FBFFFC",
"I. c #FBFCFE",
"U. c #FAFFFE",
"Y. c gray99",
"T. c #FDFDFD",
"R. c #FFFDFC",
"E. c #FFFCFD",
"W. c #FDFFFC",
"Q. c #FCFEFD",
"!. c #FCFFFD",
"~. c #FEFEFC",
"^. c #FFFEFC",
"/. c #FFFEFD",
"(. c #FEFFFD",
"). c #FFFFFD",
"_. c #FCFCFE",
"`. c #FDFCFF",
"'. c #FCFDFF",
"]. c #FDFDFF",
"[. c #FFFDFE",
"{. c #FEFDFF",
"}. c #FFFDFF",
"|. c #FDFFFE",
" X c #FDFEFF",
".X c #FCFFFF",
"XX c #FEFEFE",
"oX c #FEFEFF",
"OX c #FFFEFF",
"+X c #FEFFFF",
"@X c white",
"#X c #FFFFFE",
/* pixels */
"@X@X@X@X@X@X@X@X@X@X@X@X@X@X@X@X@X@X@X@X@X@X@X@X@X@X@X@X@X@X@X@X@X@X@X@X@XZ.@X@X@X@X@XG.@X@X@X@X@Xc.@XZ.@XG.@XG.@XZ.Z.@XZ.@X@XG.",
"@X@X@X@X@X@X@X@X@X@X@X@X@X@X@X@X@X@X@X@X@X@X@X@X@X@X@X@X@X@X@X@X@X@X@X@X@X@X@X@Xj.@X@X@XG.@Xj.U.@X@XZ.@XZ.@X@X@X@X@XZ.Z.@XZ.@X@X",
"@X@X@X@X@X@X@X@X@X@X@X@X@X@X@X@X@X@X@X@X@X@X@X@X@X@X@X@X@X@X@X@X@X@X@XZ.@X@X@X@X@X@Xj.@X@X@X@X@X@X@X@X@XZ.@X@X@XZ.@X@X@X@X@X@X@X",
"@X@X@X@X@X@X@X@X@X@X@X@X@X@X@X@X@X@X@X@X@X@X@X@X@X@X@X@X@X@X@X@XU.Z.Z.Z.@XG.@X@XZ.Z.Z.@X@Xj.@X@XU.@X@X@X@X@X@X@X@X@X@X@X@X@X@X@X",
"@X@X@X@X@X@X@X@X@X@X@X@X@X@X@X@X@X@X@X@X@X@X@X@X@X@X@X@X@X@X@X@X@XZ.Z.Z.Z.G.@X@XZ.Z.@XG.@X@Xc.@X@X@X@X@XZ.@X@X@X@X@X@X@X@X@XZ.@X",
"@X@X@X@X@X@X@X@X@X@X@X@X@X@X@X@X@X@X@X@X@X@X@X@X@X@X@X@X@X@X@X@X@X@XZ.@X@X@X@X@XZ.@XG.@X@X@Xq.q.Z.@X@X@X@Xc.@X@X@X@X@XG.@X@X@XZ.",
"@X@X@X@X@X@X@X@X@X@X@X@X@X@X@X@X@X@X@X@X@X@X@X@X@X@X@X@X@X@X@X@X@X@X@X@X@X@X@XZ.Z.@XG.@XG.r.#.%.q.@X@X@XU.@X@X@X@XZ.@X@XZ.@X@X@X",
"@X@X@X@X@X@X@X@X@X@X@X@X@X@X@X@X@X@X@X@X@X@X@X@X@X@X@X@X@X@X@X@X@X@X@X@XG.@X@XZ.Z.@X@XG.p.$.d g *.q.Z.@XU.@X@XG.Z.@X@X@X@XZ.@X@X",
"@X@X@X@X@X@X@X@X@X@X@X@X@X@X@X@X@X@X@X@X@X@X@X@X@X@X@X@X@X@X@X@X@X@X@X@XU.@X@X@Xc.U.@Xh.*.Z 6 6 T 3.p.@XU.@XG.@XZ.@X@X@XG.@X@X@X",
"@X@X@X@X@X@X@X@X@X@X@X@X@X@X@X@X@X@X@X@X@X@X@X@X@X@X@X@X@X@X@XG.G.@XG.@X@X@X@XZ.U.@X@Xq.%.h ; > y #.p.@XG.@X@XZ.@XZ.@X@X@X@X@X@X",
"@X@X@X@X@X@X@X@X@X@X@X@X@X@X@X@X@X@X@X@X@X@X@X@X@X@X@X@X@X@X@X@X@XG.@X@X@X@X@XZ.c.@XZ.8.+.y % # 6 | q.G.U.@XZ.Z.@X@X@X@X@XG.@X@X",
"@X@X@X@X@X@X@X@X@X@X@X@X@X@X@X@X@X@X@X@X@X@X@X@X@X@X@X@X@X@X@X@XG.@X@X@XZ.@XZ.Z.@X@Xp.8.#.y > & > F 5.G.@X@Xh.Z.Z.@X@X@X@X@X@XU.",
"@X@X@X@X@X@X@X@X@X@X@X@X@X@X@X@X@X@X@X@X@X@X@X@X@X@X@X@X@X@X@X@X@X@X@X@XU.@XZ.@XU.@Xh.3.#.y 3 & + 8 %.Z.@X@XZ.Z.@X@X@X@X@X@X@X@X",
"@X@X@X@X@X@X@X@X@X@X@X@X@X@X@X@X@X@X@X@X@X@X@X@X@X@X@X@X@X@X@X@X@X@X@X@X@X@X@X@X@X@X@X8.#.y > & # 6 X.q.Z.h.@XZ.@X@X@X@XG.@X@X@X",
"@X@X@X@X@X@X@X@X@X@X@X@X@X@X@X@X@X@X@X@X@X@X@X@XG.@X@X@X@X@X@XZ.Z.Z.@X@X@X@XG.@X@X@X@X8.#.r > o o 2 H >.p.@XG.@X@XU.@XG.@X@X@X@X",
"@X@X@X@X@X@X@X@X@X@X@X@X@X@X@X@X@X@X@X@X@XZ.8.3.%.>.p.@X@X@X@X@XZ.Z.@X@XG.@X@XG.@XG.@X>.+.t * X + < f %.8.@X@X@X@X@X@X@X@XZ.@X@X",
"@X@X@X@X@X@X@X@X@X@X@X@X@X@X@X@X@X@X@X@X@X8.+.u 6 y >.@X@Xj.@XZ.@Xh.@X@X@X@X@X@X@XZ.r.*.| 8 * X o % i +.8.c.U.@X@X@X@X@X@X@X@X@X",
"@X@X@X@X@X@X@X@X@X@X@X@X@X@X@X@X@X@XU.@Xh.*.c - + : @.@X@XU.@XG.h.@XZ.Z.@XZ.q.8.*.%...P M 2 * $ o % q ` 3.Z.@X@X@X@X@X@XZ.@X@X@X",
"@X@X@X@X@X@X@X@X@X@X@X@X@X@X@X@X@X@XU.p.5.[ 0 * # 6 %.G.@X@XG.@X@X@XZ.Z.q.>.+.^ B e q 3 1 1 + @ # = 3 G 3.Z.@X@X@X@X@X@X@XZ.@X@X",
"@X@X@X@X@X@X@X@X@X@X@X@X@X@X@X@Xj.U.U.q.#.h - * % w *.j.G.G.@X@XZ.q.8.*.O.P s : % & & & @ @ $ +   & > s *.Z.Z.Z.Z.Z.@X@XZ.Z.@X@X",
"@X@X@X@X@X@X@X@X@X@X@X@X@X@X@X@X@XG.@X=.) 9 & , 9 K >.Z.Z.Z.U.c.p.*.} D 8 2 > * # $ + + =   @ @ $ + % w *.@XZ.Z.p.@X@X@X@X@X@X@X",
"@X@X@X@X@X@X@X@X@X@X@X@X@X@X@X@XG.@XZ.*.z > @ > 7 +.8.Z.u.p.q.,.@.A r 9 > & + + o + + o $ +   . $ + # 5 @.p.h.Z.Z.Z.@XG.G.@X@X@X",
"@X@X@X@X@X@X@X@X@X@X@X@X@X@X@X@X@XG.p.#.5 = & > u #.8.Z.@Xq.$.{ q 3 & % + + # # $ o # $ + $ . $ o   @ 4 ] q.Z.Z.Z.Z.@X@X@X@XZ.Z.",
"@X@X@X@X@X@X@X@X@X@X@X@X@X@X@X@XG.@X8.R : # + : S *.q.Z.Z.3.T 5 = @   $ & = * % + = % * > = @ @ $ . $ 4 W 8.Z.@X@X@X@X@X@X@X@XZ.",
"@X@X@X@X@X@X@X@X@X@X@X@X@X@X@X@X@Xq.%.v > $ $ 2 [ q.Z.Z.@X$.r 1 *   + $ $ + % & % 2 5 w n w & $ @ $ = 2 T >.p.Z.@X@X@X@X@X@X@XZ.",
"@X@X@X@X@X@X@X@X@X@X@X@X@X@X@X@X@X8.+.8 + . . 2 o.3.p.@X@X%.u 2 < % > > 2 4 0 p M I ) o.| m , @ @   $ 2 H *.p.@X@XG.@X@X@X@X@XZ.",
"@X@X@X@X@X@X@X@X@X@X@X@X@X@X@XZ.Z.>.Y : = . @ , a X.>.Z.Z.8._ g y u x D T ] #.*.>.>.5.>.#.C < . @ + & > b $.8.U.@X@X@X@XZ.@X@XZ.",
"@X@X@X@X@X@X@X@X@X@X@X@X@X@X@X@XZ.*.l > & @ . & 4 t [ *.q.q.>.%.#.#.%.*.>.8.p.@XG.G.@Xp.%.C 4 @ @ @ + 2 h #.8.@X@X@XG.@XZ.Z.Z.@X",
"@X@X@X@X@X@X@X@X@X@X@X@X@X@X@X@Xp.#.0 + @ $ + & % 2 5 ^ =.r.p.p.p.q.p.p.Z.Z.@X@XG.@XG.Z.*.H 2 o @ @   1 a +.q.Z.@X@X@X@X@XZ.@X@X",
"@X@X@X@X@X@X@X@X@X@X@X@X@X@X@XZ.q.W 4   $ $ = & = = , 9 E *.q.c.U.U.@X@X@XU.U.@X@X@XG.Z.*.H 3 $ & $ # % i +.8.@X@X@XU.@XZ.@X@X@X",
"@X@X@X@X@X@X@X@X@X@X@X@X@X@X@Xp.*.V 2 + = + < * & + @ = 2 b O.8.Z.@X@XG.G.@X@X@X@XZ.@XZ.>.T 2 = + $ o % 7 } 3.@X@X@X@X@X@XG.@X@X",
"@X@X@X@X@X@X@X@X@X@X@X@X@X@X@X8.X.t 1 & @ > N k > @ @ @ @ 2 h X.*.q.@XG.@X@X@XZ.Z.@X@Xp.3.T - & $ + $ * 5 ` 8.U.U.@X@X@X@X@X@X@X",
"@X@X@X@X@X@X@XU.@X@X@X@XU.@X@X8.K 4 + o & 6 { o.w , @ $ . & 4 t ` *.p.@XU.U.@X@X@XZ.@Xp.8._ 2 + + # $ % q ~ 3.U.@XU.@X@X@X@XZ.@X",
"Z.Z.G.@X@XU.U.U.Z.@XG.@X@X@XZ.%.p * + = # 7 %.>.{ q & + @ . + < 8 / *.p.@XU.@Xj.Z.@X@XZ.5._ 2 $ # #   & 9 ~ >.@X@XU.@X@X@X@XZ.@X",
"Z.Z.@X@X@X@XU.@XZ.Z.@XG.@XZ.8.} : = + = > c *.p.>.T : = $ @ @ & ; 7 ( $.p.@X@XZ.Z.Z.@XZ.q._ : # o   @ & 9 ~ 3.@XU.U.@X@X@XG.@X@X",
"Z.@XG.@X@X@X@X@XZ.Z.@X@XG.p.*.J >   # % 2 I 8.G.@X*.F > @ @ + = + < 7 ( 5.h.@X@XZ.Z.@XZ.q._ : # $ @ @ & 9 ~ 8.@X@X@XZ.Z.G.@XG.@X",
"@X@X@X@X@X@X@XG.Z.Z.@X@XG.q.#.x > + + 1 5 ` q.@X@X8.+.u > + & @ o = % i O.p.G.G.Z.Z.@X@X8.' 4 & & @ @ & 9 ~ 3.@XZ.Z.Z.Z.@X@X@X@X",
"Z.@X@X@XZ.@X@X@XZ.h.@X@XG.8.X.t * = # > t +.q.G.c.p.3.Q 0 + + = + $ @ 4 R 5.@XG.@X@X@XG.8._ : # & & @ % 3 ~ 3.@XZ.Z.Z.Z.@X@X@X@X",
"@X@X@X@X@XZ.G.@X@XZ.@X@XG.8.[ 8 , . & 2 x #.q.@XU.c.p.%.c 4 & & @ & + > H >.Z.@X@X@X@XZ.q.] 4 # # # X * 6 ( 5.@XZ.Z.@X@X@X@X@XU.",
"@XU.@X@XZ.Z.@X@X@X@Xj.U.@X8.[ r , & & 2 H *.p.@XU.U.c.8.} w , & & & & 2 L >.p.@X@X@X@Xh.q._ : # X # X # 9 ( q.G.@X@X@X@XG.@X@X@X",
"@X@X@X@XZ.Z.@X@X@X@XU.U.@Xq.@.f - % , 8 O.8.p.@Xj.@XZ.r.>./ p > % * * j ] q.Z.U.@XZ.Z.p.8.] : o &   + & 6 ( 8.@X@XG.@X@X@X@X@XU.",
"@X@X@X@X@XZ.Z.@X@X@XU.U.U.p.>.W u 6 j U *.Z.Z.@X@Xh.@X@XZ.>.) l w 5 l ! $.p.@X@XZ.@Xh.p.u.X.9 = . + & % 5 ( >.@X@X@X@X@XG.@X@X@X",
"@X@X@XG.@XZ.@X@X@Xj.U.U.c.p.q.5.@. ...=.p.@X@Xh.@X@XG.G.@Xp.8.%.O.O.$.>.q.@XU.c.@XG.G.G.@X$.p & @ @ @ , 8 ` >.Z.@X@X@XU.@X@X@XZ.",
"Z.@X@X@X@X@X@XG.@X@X@XU.U.Z.h.h.Z.Z.h.Z.j.@XG.@X@XG.@XG.@XU.c.h.p.u.Z.@X@XU.U.@X@X@X@X@X@X8.D 2 & & % 2 u +.3.Z.@X@X@X@X@X@XZ.@X",
"Z.@X@X@X@X@X@X@XG.@X@XU.U.U.@XG.h.Z.@XZ.Z.Z.U.@XG.@X@X@XG.U.@XZ.Z.Z.G.G.@X@Xj.@X@XG.@XZ.@X8.] c 3 % 4 8 R >.p.c.@XU.@X@XZ.@X@XG.",
"Z.@XG.@X@X@XZ.@X@X@XG.@XU.@X@X@X@XZ.@X@X@X@XU.U.@X@XG.@X@XU.j.@X@XG.G.G.G.@X@X@X@X@X@Xc.U.q.$.] F c M T $.q.Z.U.@X@X@X@X@XZ.@X@X",
"@XZ.@XG.@X@X@X@XG.@X@X@Xj.@X@X@X@XZ.@XU.U.@X@X@X@XZ.@X@XU.U.@X@X@XU.@X@X@XZ.G.Z.@X@XU.@X@X@Xp.8.>.$.$.8.u.Z.c.U.G.@X@X@X@X@X@XZ.",
"@X@X@X@X@X@X@X@X@X@X@X@X@X@Xj.@X@X@X@XU.G.@X@XZ.Z.@XZ.Z.U.U.@XG.U.U.G.Z.@XZ.@X@X@X@X@XZ.U.@X@X@XG.@XZ.Z.@X@XU.@X@XG.@X@X@X@X@XZ.",
"@X@X@X@X@X@X@X@X@X@X@X@X@X@X@X@X@X@X@X@X@X@X@X@X@X@X@XZ.@XU.@X@X@X@X@XZ.@X@X@X@X@X@X@X@X@X@X@X@X@X@X@X@X@X@X@X@X@X@X@X@X@X@X@XZ.",
"@X@X@X@X@X@X@X@X@X@X@X@X@X@X@X@X@X@X@X@X@X@X@X@X@X@X@X@X@X@X@X@X@X@X@X@X@X@X@X@X@X@X@X@X@X@X@X@X@X@X@X@X@X@X@X@X@X@X@X@X@X@X@X@X",
"@X@X@X@X@X@X@X@X@X@X@X@X@X@X@X@X@X@X@X@X@X@X@X@X@X@X@X@X@X@X@X@X@X@X@X@X@X@X@X@X@X@X@X@X@X@X@X@X@X@X@X@X@X@X@X@X@X@X@X@X@X@X@X@X",
"@X@X@X@X@X@X@X@X@X@X@X@X@X@X@X@X@X@X@X@X@X@X@X@X@X@X@X@X@X@X@X@X@X@X@X@X@X@X@X@X@X@X@X@X@X@X@X@X@X@X@X@X@X@X@X@X@X@X@X@X@X@X@X@X",
"@X@X@X@X@X@X@X@X@X@X@X@X@X@X@X@X@X@X@X@X@X@X@X@X@X@X@X@X@X@X@X@X@X@X@X@X@X@X@X@X@X@X@X@X@X@X@X@X@X@X@X@X@X@X@X@X@X@X@X@X@X@X@X@X",
"@X@X@X@X@X@X@X@X@X@X@X@X@X@X@X@X@X@X@X@X@X@X@X@X@X@X@X@X@X@X@X@X@X@X@X@X@X@X@X@X@X@X@X@X@X@X@X@X@X@X@X@X@X@X@X@X@X@X@X@X@X@X@X@X",
"@X@X@X@X@X@X@X@X@X@X@X@X@X@X@X@X@X@X@X@X@X@X@X@X@X@X@X@X@X@X@X@X@X@X@X@X@X@X@X@X@X@X@X@X@X@X@X@X@X@X@X@X@X@X@X@X@X@X@X@X@X@X@X@X",
"@X@X@X@X@X@X@X@X@X@X@X@X@X@X@X@X@X@X@X@X@X@X@X@X@X@X@X@X@X@X@X@X@X@X@X@X@X@X@X@X@X@X@X@X@X@X@X@X@X@X@X@X@X@X@X@X@X@X@X@X@X@X@X@X",
"@X@X@X@X@X@X@X@X@X@X@X@X@X@X@X@X@X@X@X@X@X@X@X@X@X@X@X@X@X@X@X@X@X@X@X@X@X@X@X@X@X@X@X@X@X@X@X@X@X@X@X@X@X@X@X@X@X@X@X@X@X@X@X@X",
"@X@X@X@X@X@X@X@X@X@X@X@X@X@X@X@X@X@X@X@X@X@X@X@X@X@X@X@X@X@X@X@X@X@X@X@X@X@X@X@X@X@X@X@X@X@X@X@X@X@X@X@X@X@X@X@X@X@X@X@X@X@X@X@X",
"@X@X@X@X@X@X@X@X@X@X@X@X@X@X@X@X@X@X@X@X@X@X@X@X@X@X@X@X@X@X@X@X@X@X@X@X@X@X@X@X@X@X@X@X@X@X@X@X@X@X@X@X@X@X@X@X@X@X@X@X@X@X@X@X",
"@X@X@X@X@X@X@X@X@X@X@X@X@X@X@X@X@X@X@X@X@X@X@X@X@X@X@X@X@X@X@X@X@X@X@X@X@X@X@X@X@X@X@X@X@X@X@X@X@X@X@X@X@X@X@X@X@X@X@X@X@X@X@X@X",
"@X@X@X@X@X@X@X@X@X@X@X@X@X@X@X@X@X@X@X@X@X@X@X@X@X@X@X@X@X@X@X@X@X@X@X@X@X@X@X@X@X@X@X@X@X@X@X@X@X@X@X@X@X@X@X@X@X@X@X@X@X@X@X@X",
"@X@X@X@X@X@X@X@X@X@X@X@X@X@X@X@X@X@X@X@X@X@X@X@X@X@X@X@X@X@X@X@X@X@X@X@X@X@X@X@X@X@X@X@X@X@X@X@X@X@X@X@X@X@X@X@X@X@X@X@X@X@X@X@X",
"@X@X@X@X@X@X@X@X@X@X@X@X@X@X@X@X@X@X@X@X@X@X@X@X@X@X@X@X@X@X@X@X@X@X@X@X@X@X@X@X@X@X@X@X@X@X@X@X@X@X@X@X@X@X@X@X@X@X@X@X@X@X@X@X",
"@X@X@X@X@X@X@X@X@X@X@X@X@X@X@X@X@X@X@X@X@X@X@X@X@X@X@X@X@X@X@X@X@X@X@X@X@X@X@X@X@X@X@X@X@X@X@X@X@X@X@X@X@X@X@X@X@X@X@X@X@X@X@X@X"
};