/* XPM */
static char *_401ed37db8247d9e2d21b5fbae55713HUTetDWwmpgEAAZS[] = {
/* columns rows colors chars-per-pixel */
"64 64 189 2 ",
"   c #3B5C8F",
".  c #3E5E96",
"X  c #365C9D",
"o  c #3C5E9C",
"O  c #3F608D",
"+  c #3D6296",
"@  c #35619E",
"#  c #3C629C",
"$  c #355EA4",
"%  c #3B5EA3",
"&  c #345EAD",
"*  c #385FAB",
"=  c #325FB2",
"-  c #395FB0",
";  c #2D62AE",
":  c #3662A5",
">  c #3B62A4",
",  c #3462AC",
"<  c #3A62AA",
"1  c #2E62B3",
"2  c #3462B3",
"3  c #3963B2",
"4  c #3663B8",
"5  c #405F8D",
"6  c #435E94",
"7  c #425F9B",
"8  c #47628D",
"9  c #4C618C",
"0  c #456292",
"q  c #4B6695",
"w  c #42629B",
"e  c #486398",
"r  c #47689B",
"t  c #4D6B9C",
"y  c #526B93",
"u  c #50679B",
"i  c #546D9B",
"p  c #64779E",
"a  c #4364A3",
"s  c #4A66A1",
"d  c #4669A3",
"f  c #4163AB",
"g  c #5069A2",
"h  c #5573A5",
"j  c #5B74A3",
"k  c #5275AD",
"l  c #5C7AAD",
"z  c #476CB3",
"x  c #4D72B9",
"c  c #5E7BB3",
"v  c #5D7FBC",
"b  c #647DA6",
"n  c #6B7EA6",
"m  c #6076A8",
"M  c #6686AF",
"N  c #6C84AB",
"B  c #6F8CAA",
"V  c #7183AB",
"C  c #6280B2",
"Z  c #6B84B2",
"A  c #6B89B9",
"S  c #7183B5",
"D  c #7A8EB1",
"F  c #748BB8",
"G  c #7794B6",
"H  c #7190BE",
"J  c #7B94BB",
"K  c #6484C1",
"L  c #628BC9",
"P  c #6C8ACA",
"I  c #718FC1",
"U  c #7594C5",
"Y  c #7A99C7",
"T  c #7893C8",
"R  c #7D9BD0",
"E  c #859CC2",
"W  c #889CC5",
"Q  c #8499C8",
"!  c #8AA3CC",
"~  c #92A5C5",
"^  c #9BB0CD",
"/  c #8DAED1",
"(  c #8DACDB",
")  c #93ABD7",
"_  c #95ACDE",
"`  c #9DAED9",
"'  c #9DB2D5",
"]  c #9EB8DD",
"[  c #A2B4D7",
"{  c #A6BADE",
"}  c #ABBADC",
"|  c #91A7E0",
" . c #9DB5E1",
".. c #9EBDEB",
"X. c #A2B9E5",
"o. c #AABCE4",
"O. c #A8BEED",
"+. c #AEC1E3",
"@. c #A5C5EE",
"#. c #AAC1EB",
"$. c #BDCBE6",
"%. c #B2C4E8",
"&. c #BBCEEE",
"*. c #AFC6F5",
"=. c #A7C5FF",
"-. c #AFCAFF",
";. c #B9CFF8",
":. c #BDD2F3",
">. c #BBD4FC",
",. c #BED8FB",
"<. c #C7D3ED",
"1. c #C2D2F2",
"2. c #C9D7F1",
"3. c #C2D5FB",
"4. c #C4DAFC",
"5. c #CBDDFF",
"6. c #CCE3FE",
"7. c #D3E3FE",
"8. c #D5E9FE",
"9. c #DBECFF",
"0. c #DDF2FF",
"q. c #DEF9FF",
"w. c #E4F3FF",
"e. c #EAF7FF",
"r. c #E5FDFF",
"t. c #ECFCFF",
"y. c #F7FCF6",
"u. c #FEFEF6",
"i. c azure",
"p. c #F1FFFF",
"a. c #F2FFFF",
"s. c #F3FFFF",
"d. c #F3FEFF",
"f. c #F2FCFF",
"g. c #F5FCFF",
"h. c #F6FDFF",
"j. c #F4FFFF",
"k. c #F5FFFF",
"l. c #F7FEFF",
"z. c #F7FFFF",
"x. c #F6FFFF",
"c. c #F4FEFF",
"v. c #FBFFFA",
"b. c #FDFEF9",
"n. c #FFFDFB",
"m. c #FCFFFB",
"M. c #FDFFFA",
"N. c #FFFFFA",
"B. c #FEFFFB",
"V. c #FFFFFB",
"C. c #FEFFFA",
"Z. c #FCFCFA",
"A. c #FBFAFF",
"S. c #FDFBFF",
"D. c #FFFAFC",
"F. c #FBFFFD",
"G. c #F9FDFF",
"H. c #FBFDFF",
"J. c #F8FFFF",
"K. c #F9FFFF",
"L. c #FAFEFF",
"P. c #FBFEFF",
"I. c #FBFFFF",
"U. c #F8FCFD",
"Y. c #FDFDFD",
"T. c #FFFDFC",
"R. c #FFFCFD",
"E. c #FFFDFD",
"W. c #FCFFFD",
"Q. c #FDFFFD",
"!. c #FFFEFD",
"~. c #FEFFFD",
"^. c #FFFFFD",
"/. c #FFFEFC",
"(. c #FCFDFF",
"). c #FFFDFE",
"_. c #FEFCFF",
"`. c #FFFCFF",
"'. c #FFFDFF",
"]. c #FFFCFE",
"[. c #FDFEFF",
"{. c #FCFFFF",
"}. c #FDFFFE",
"|. c #FEFEFE",
" X c #FEFEFF",
".X c #FFFEFF",
"XX c #FEFFFF",
"oX c white",
"OX c #FEFFFF",
/* pixels */
"oXoXoXoXoXoXoXoXoXoXoXoXoXoXoXoXP.oXoXoXoXoXoXoXoXv.P.oXoXoXS.oXS.B.oXoXP.v.oXB.oXoXoXoXoXB.oXoXS.oXoXoXoXoXoXoXoXoXoXoXoXoXoXoX",
"oXoXoXoXoXoXoXoXoXoXoXoXoXoXoXoXoXoXoXoXoXS.oXoXoXoXoXoXoXoXoXoXoXoXoXoXP.oXB.oXoXoXoXoXB.oXoXS.oXoXoXoXoXoXoXoXoXoXoXoXoXoXoXoX",
"oXoXoXoXoXoXoXoXoXoXoXoXoXoXoXoXoXoXoXoXoXB.oXoXoXoXoXoXB.oXB.oXS.oXoXS.oXoXoXoXoXS.S.oXoXoXoXoXoXoXoXoXoXoXoXoXoXoXoXoXoXoXoXoX",
"oXoXoXoXoXoXoXoXoXoXoXoXoXoXoXoXoXoXoXoXB.oXB.oXoXS.oXB.B.B.oXoXoXoXoXoXoXoXoXoXoXoXoXoXoXoXoXoXoXoXoXoXoXoXoXoXoXoXoXoXoXoXoXoX",
"oXoXoXoXoXoXoXoXoXoXoXoXoXoXoXoXB.B.B.v.v.oXoXoXoXoXoXoXoXoXP.v.B.B.oXoXoXS.oXoXB.oXoXoXoXoXoXP.oXoXoXoXoXoXoXoXoXoXoXoXoXoXoXoX",
"oXoXoXoXoXoXoXoXoXoXoXoXoXoXoXoXoXB.B.oXP.P.P.oXoXoXoXS.oXoXP.P.B.oXS.oXS.oXoXoXoXoXS.oXoXoXoXoXoXoXoXoXoXoXoXoXoXoXoXoXoXoXoXoX",
"oXoXoXoXoXoXoXoXoXoXoXoXoXoXoXoXoXP.B.oXoXB.oXoXoXoXoXoXoXP.B.oXoXP.oXoXoXB.B.B.oXoXoXoXoXB.B.B.oXoXoXoXoXoXoXoXoXoXoXoXoXoXoXoX",
"oXoXoXoXoXoXoXoXoXoXoXoXoXoXoXoXP.P.oXoXB.oXoXoXoXS.oXoXoXoXoXoXl.l.l.P.P.P.oXB.oXoXS.oXB.B.B.oXoXoXoXoXoXoXoXoXoXoXoXoXoXoXoXoX",
"oXoXoXoXoXoXoXoXoXoXoXoXoXoXoXoXoXoXoXP.oXB.S.oXS.oXB.B.P.oXl.p.r.6.#.o.7.v.l.v.oXoXoXoXoXB.oXB.oXoXoXoXoXoXoXoXoXoXoXoXoXoXoXoX",
"oXoXoXoXoXoXoXoXoXoXoXoXoXoXoXoXS.oXA.oXoXoXy.oXoXoXoXP.l.l.5.V 0 + w 6 9 2.l.B.B.oXS.oXoXoXoXS.oXoXoXoXoXoXoXoXoXoXoXoXoXoXoXoX",
"oXoXoXoXoXoXoXoXoXoXoXoXoXoXoXoXoXoXoXS.oXoXP.P.B.P.l.r._ s % > : : * f 6 ' l.v.B.oXoXoXoXoXoXoXoXoXoXoXoXoXoXoXoXoXoXoXoXoXoXoX",
"oXoXoXoXoXoXoXoXoXoXoXoXoXoXoXoXoXoXS.oXoXP.l.l.t.8.N . > , - 2 , , & % 6 1.f.oXB.B.oXoXoXoXoXS.oXoXoXoXoXoXoXoXoXoXoXoXoXoXoXoX",
"oXoXoXoXoXoXoXoXoXoXoXoXoXoXoXB.B.B.B.oXoXoXl.8.h # : , , , , 2 , < o q ^ p.l.oXoXoXS.oXB.oXoXoXoXoXoXoXoXoXoXoXoXoXoXoXoXoXoXoX",
"oXoXoXoXoXoXoXoXoXoXoXoXoXoXoXoXu.B.oXP.P.t.V 6 > 2 1 ; , > > o w m #.r.l.P.oXoXoXoXoXoXoXB.oXoXoXoXoXoXoXoXoXoXoXoXoXoXoXoXoXoX",
"oXoXoXoXoXoXoXoXoXoXoXoXoXoXoXB.B.Z.P.l.t.5 w > 2 2 1 , > . i { e.p.P.P.oXS.oXB.B.B.B.oXoXoXoXoXoXoXoXoXoXoXoXoXoXoXoXoXoXoXoXoX",
"oXoXoXoXoXoXoXoXoXoXoXoXoXoXoXoXoXoXoXl.3.e X , > > a c O.9.p.l.P.P.oXoXoXB.oXB.B.B.B.B.oXoXoXoXoXoXoXoXoXoXoXoXoXoXoXoXoXoXoXoX",
"oXoXoXoXoXoXoXoXoXoXoXoXoXoXoXoXoXoXP.p.k , % r M 1.t.l.P.P.l.l.P.P.oXoXoXZ.oXB.oXB.oXZ.B.B.S.oXoXoXoXoXoXoXoXoXoXoXoXoXoXoXoXoX",
"oXoXoXoXoXoXoXoXoXoXoXoXoXoXoXoXoXoXB.p.# 2 % q.t.P.oXoXS.B.oXoXP.oXoXP.B.oXoXA.oXS.oXoXu.B.S.oXoXoXoXoXoXoXoXoXoXoXoXoXoXoXoXoX",
"oXoXoXoXoXoXoXoXoXoXoXoXoXoXoXoXoXZ.u.l.6 3 * | p.P.P.oXoXS.S.oXoXP.oXoXB.B.oXoXoXoXoXoXB.oXP.P.oXoXoXoXoXoXoXoXoXoXoXoXoXoXoXoX",
"oXoXoXoXoXoXoXoXoXoXoXoXoXoXoXoXoXoXB.l.g % % g l.oXl.A.oXoXS.oXP.P.l.l.P.l.l.l.P.A.S.oXoXh.P.P.oXoXoXoXoXoXoXoXoXoXoXoXoXoXoXoX",
"oXoXoXoXoXoXoXoXoXoXoXoXoXoXoXoXoXS.oXl.! w < o f.oXoXv.y.B.oXoXoXl.p.3.Y t r M 0.l.P.A.oXoXoXv.oXoXoXoXoXoXoXoXoXoXoXoXoXoXoXoX",
"oXoXoXoXoXoXoXoXoXoXoXoXoXoXoXoXoXoXoXl.4.6 : # 9.P.v.v.v.P.P.oXf.} i + < ; , @ B t.P.oXoXS.B.v.v.oXoXoXoXoXoXoXoXoXoXoXoXoXoXoX",
"oXoXoXoXoXoXoXoXoXoXoXoXoXoXoXoXoXoXP.l.5.w : > +.l.P.l.oXP.t.O.s % > : 2 2 & # y p.oXoXS.oXB.B.oXoXoXoXoXoXoXoXoXoXoXoXoXoXoXoX",
"oXoXoXoXoXoXoXoXoXoXoXoXoXoXoXoXoXoXP.l.0.+ : : F p.l.P.h.7.j % < 2 1 2 2 , * w ~ P.oXS.Z.B.oXoXoXoXoXoXoXoXoXoXoXoXoXoXoXoXoXoX",
"oXoXoXoXoXoXoXoXoXoXoXoXoXoXoXoXP.P.oXl.l.6 < , t p.p.f.Q 7 % , - - 1 1 2 : e W f.oXS.oXS.oXS.oXoXoXoXoXoXoXoXoXoXoXoXoXoXoXoXoX",
"oXoXoXoXoXoXoXoXoXoXoXoXoXoXoXoXP.P.oXP.l.6 : , 0 r.8.u a * 2 2 3 4 ; : # l 3.h.oXB.S.oXP.P.oXS.oXoXoXoXoXoXoXoXoXoXoXoXoXoXoXoX",
"oXoXoXoXoXoXoXoXoXoXoXoXoXoXoXoXoXoXoXP.p.0 $ , : L % > 2 2 1 1 1 2 @ A 6.f.P.P.P.B.S.S.oXP.oXoXoXoXoXoXoXoXoXoXoXoXoXoXoXoXoXoX",
"oXoXoXoXoXoXoXoXoXoXoXoXoXoXoXoXoXoXS.P.l.8 < 2 , , 2 2 2 2 , 2 4 1 # r.P.oXP.oXv.Z.oXoXoXoXv.oXoXoXoXoXoXoXoXoXoXoXoXoXoXoXoXoX",
"oXoXoXoXoXoXoXoXoXoXoXoXoXoXoXoXoXS.oXA.p.b % 4 , ; 2 2 2 4 , < & * w 8.P.oXoXoXP.oXu.B.v.P.oXB.oXoXoXoXoXoXoXoXoXoXoXoXoXoXoXoX",
"oXoXoXoXoXoXoXoXoXoXoXoXoXoXoXoXoXB.S.oXP.5.7 < : > > > > d =.a , * e 3.P.B.oXA.l.P.l.P.l.p.h.P.oXoXoXoXoXoXoXoXoXoXoXoXoXoXoXoX",
"oXoXoXoXoXoXoXoXoXoXoXoXoXoXoXoXoXoXoXB.y.l.%.0 w . 6 y o.t.r.0 > , > ] P.B.oXP.p.p.7.! A E 9.l.oXoXoXoXoXoXoXoXoXoXoXoXoXoXoXoX",
"oXoXoXoXoXoXoXoXoXoXoXoXoXoXoXoXoXZ.oXZ.B.P.l.e.5.,.w.t.P.P.p.q > , $ T t.P.p.e.' i o % $ 7 p p.P.oXoXoXoXoXoXoXoXoXoXoXoXoXoXoX",
"oXoXoXoXoXoXoXoXoXoXoXoXoXoXoXoXoXoXS.oXB.oXoXP.l.l.l.l.P.P.l.u < & * K r.6.T r # : 2 & < % 0 w.P.oXoXoXoXoXoXoXoXoXoXoXoXoXoXoX",
"oXoXoXoXoXoXoXoXoXoXoXoXoXoXoXoXoXoXoXoXB.B.oXS.v.u.B.B.oXP.l.m > 2 , x v w < , , 2 2 2 , # y e.P.oXoXoXoXoXoXoXoXoXoXoXoXoXoXoX",
"oXoXoXoXoXoXoXoXoXoXoXoXoXoXoXoXoXoXoXoXoXoXoXoXoXoXoXB.oXP.l.J : 2 2 3 * , , , 2 2 2 , > 0 $.P.oXoXoXoXoXoXoXoXoXoXoXoXoXoXoXoX",
"oXoXoXoXoXoXoXoXoXoXoXoXoXoXoXoXoXoXB.B.oXoXoXoXoXoXS.oXP.p.r...: , 2 = 4 2 ; , $ > o r U 9.l.oXoXoXoXoXoXoXoXoXoXoXoXoXoXoXoXoX",
"oXoXoXoXoXoXoXoXoXoXoXoXoXoXoXoXoXB.u.u.B.oXoXoXoXoXS.oXp.r.U > 2 , 2 2 2 - 2 < w i o.w.p.l.oXoXoXoXoXoXoXoXoXoXoXoXoXoXoXoXoXoX",
"oXoXoXoXoXoXoXoXoXoXoXoXoXoXoXoXB.B.u.u.B.oXoXoXoXA.S.t.] # > , , 2 2 < * > # C 3.t.P.P.P.A.oXZ.oXoXoXoXoXoXoXoXoXoXoXoXoXoXoXoX",
"oXoXoXoXoXoXoXoXoXoXoXoXoXoXoXoXoXoXoXoXoXoXP.P.l.p.,.r X : * , 2 , : # q [ e.l.p.l.P.h.P.oXZ.B.oXoXoXoXoXoXoXoXoXoXoXoXoXoXoXoX",
"oXoXoXoXoXoXoXoXoXoXoXoXoXoXoXoXoXoXoXoXoXoXl.p.9.y w $ 2 2 < > # @ l ;.p.P.P.oXP.P.P.P.A.B.B.B.oXoXoXoXoXoXoXoXoXoXoXoXoXoXoXoX",
"oXoXoXoXoXoXoXoXoXoXoXoXoXoXoXoXS.oXZ.oXoXl.t.! + > < , , < o q ! 0.p.P.P.A.oXoXP.oXoXP.oXoXB.v.P.oXoXoXoXoXoXoXoXoXoXoXoXoXoXoX",
"oXoXoXoXoXoXoXoXoXoXoXoXoXoXoXoXB.B.B.Z.oXl.G + @ : # o w l ;.t.y.p.oXoXS.P.l.l.P.l.oXoXoXoXv.v.B.oXoXoXoXoXoXoXoXoXoXoXoXoXoXoX",
"oXoXoXoXoXoXoXoXoXoXoXoXoXoXoXoXoXoXoXS.oXl.6 # # 8 N 1.f.l.l.p.l.oXZ.oXf.e.4.,.6.e.l.A.oXB.Z.oXoXoXoXoXoXoXoXoXoXoXoXoXoXoXoXoX",
"oXoXoXoXoXoXoXoXoXoXoXoXoXoXoXoXoXA.oXA.oXP.n j 4.t.l.h.oXZ.oXP.P.l.l.<.p 8 w + .   D t.oXS.oXZ.oXoXoXoXoXoXoXoXoXoXoXoXoXoXoXoX",
"oXoXoXoXoXoXoXoXoXoXoXoXoXoXoXoXv.oXoXoXoXP.g.A.l.l.P.oXB.oXoXoXl.4.j > > : , : : : > Z h.S.oXoXoXoXoXoXoXoXoXoXoXoXoXoXoXoXoXoX",
"oXoXoXoXoXoXoXoXoXoXoXoXoXoXoXoXoXB.oXZ.P.oXoXoXoXA.oXoXZ.oXA.l.{ w : 2 2 2 , 2 1 1 , # 1.P.l.oXoXoXoXoXoXoXoXoXoXoXoXoXoXoXoXoX",
"oXoXoXoXoXoXoXoXoXoXoXoXoXoXoXoXoXoXB.B.oXB.S.oXS.oXP.P.oXoXl.' w * , , 2 1 2 2 2 , 4 % j t.P.P.oXoXoXoXoXoXoXoXoXoXoXoXoXoXoXoX",
"oXoXoXoXoXoXoXoXoXoXoXoXoXoXoXoXS.oXB.B.y.B.B.oXoXoXoXP.v.l.8.w * 2 2 2 , : s P z , , > 8 p.P.P.oXoXoXoXoXoXoXoXoXoXoXoXoXoXoXoX",
"oXoXoXoXoXoXoXoXoXoXoXoXoXoXoXoXoXoXS.B.B.B.oXoXoXoXS.oXB.l.U : , 2 , : # H 9.p.-.a , > 8 t.P.oXoXoXoXoXoXoXoXoXoXoXoXoXoXoXoXoX",
"oXoXoXoXoXoXoXoXoXoXoXoXoXoXoXoXoXB.oXoXB.P.oXoXoXy.B.B.B.l.s 2 2 2 ; > @.p.S.P.*.> , > 0 t.l.oXoXoXoXoXoXoXoXoXoXoXoXoXoXoXoXoX",
"oXoXoXoXoXoXoXoXoXoXoXoXoXoXoXoXB.oXoXoXoXP.oXoXoXoXB.oXoXe.7 = 2 2 , l t.P.oXl.R & 2 : O t.P.B.oXoXoXoXoXoXoXoXoXoXoXoXoXoXoXoX",
"oXoXoXoXoXoXoXoXoXoXoXoXoXoXoXoXoXoXoXS.oXoXoXoXZ.B.B.B.A.h.7 - = 2 $ ( l.P.oXt.a , 1 : 0 p.l.v.oXoXoXoXoXoXoXoXoXoXoXoXoXoXoXoX",
"oXoXoXoXoXoXoXoXoXoXoXoXoXoXoXoXoXoXoXoXoXoXS.oXB.v.B.P.oXP.S a 2 2 < R l.P.p.) > 2 1 < j f.P.oXoXoXoXoXoXoXoXoXoXoXoXoXoXoXoXoX",
"oXoXoXoXoXoXoXoXoXoXoXoXoXoXoXoXoXoXoXoXoXoXoXoXB.B.v.oXoXh.7.e * - , w 8.7.H o , , 4 X ` A.P.oXoXoXoXoXoXoXoXoXoXoXoXoXoXoXoXoX",
"oXoXoXoXoXoXoXoXoXoXoXoXoXoXoXoXoXoXB.B.oXoXoXoXoXB.P.P.B.P.l.8.a , < $ % > > < 3 * : r w.S.oXoXoXoXoXoXoXoXoXoXoXoXoXoXoXoXoXoX",
"oXoXoXoXoXoXoXoXoXoXoXoXoXoXoXoXoXoXB.B.oXoXS.oXB.oXoXP.oXB.l.p.*.a : 2 2 2 & 2 * > # X.l.oXP.oXoXoXoXoXoXoXoXoXoXoXoXoXoXoXoXoX",
"oXoXoXoXoXoXoXoXoXoXoXoXoXoXoXoXoXoXB.B.oXoXoXoXoXoXP.v.oXB.v.l.l.G + ; 2 2 2 2 > w W p.P.P.oXoXoXoXoXoXoXoXoXoXoXoXoXoXoXoXoXoX",
"oXoXoXoXoXoXoXoXoXoXoXoXoXoXoXoXoXoXB.B.oXoXS.oXoXoXP.oXoXB.B.oXP.p./ + @ > > o i &.p.oXl.oXP.oXoXoXoXoXoXoXoXoXoXoXoXoXoXoXoXoX",
"oXoXoXoXoXoXoXoXoXoXoXoXoXoXoXoXoXoXB.oXoXoXoXoXoXB.oXoXoXoXoXoXoXS.l.e.6.&.1.7.p.l.P.oXoXS.oXoXoXoXoXoXoXoXoXoXoXoXoXoXoXoXoXoX",
"oXoXoXoXoXoXoXoXoXoXoXoXoXoXoXoXoXoXB.B.oXS.oXoXB.oXB.oXoXS.S.oXoXS.oXP.l.P.A.oXP.P.B.B.Z.Z.S.oXoXoXoXoXoXoXoXoXoXoXoXoXoXoXoXoX",
"oXoXoXoXoXoXoXoXoXoXoXoXoXoXoXoXoXoXoXoXoXoXoXoXoXoXB.oXoXS.oXoXS.oXS.S.oXA.S.oXP.P.B.B.B.oXP.v.oXoXoXoXoXoXoXoXoXoXoXoXoXoXoXoX",
"oXoXoXoXoXoXoXoXoXoXoXoXoXoXoXoXoXoXoXoXoXoXoXoXoXoXB.oXoXoXoXoXoXoXoXoXS.oXS.S.oXoXv.oXB.oXy.oXP.oXoXoXoXoXoXoXoXoXoXoXoXoXoXoX",
"oXoXoXoXoXoXoXoXoXoXoXoXoXoXoXoXoXoXoXB.oXoXP.P.oXoXoXB.oXoXB.B.oXoXv.oXoXZ.oXB.B.B.oXoXA.oXoXoXoXoXoXoXoXoXoXoXoXoXoXoXoXoXoXoX",
"oXoXoXoXoXoXoXoXoXoXoXoXoXoXoXoXoXoXB.B.oXoXP.oXoXS.B.B.B.B.u.u.B.B.v.v.oXoXB.B.B.u.oXS.oXoXoXS.oXoXoXoXoXoXoXoXoXoXoXoXoXoXoXoX"
};