/* XPM */
static char *_7f3e039a782490bee8809ef6fc3a7f8YemuXnkjSUF9GVrL[] = {
/* columns rows colors chars-per-pixel */
"64 64 179 2 ",
"   c #254F27",
".  c #284E27",
"X  c #264E2B",
"o  c #2A4D2D",
"O  c #304D2F",
"+  c #255226",
"@  c #25522B",
"#  c #2A512D",
"$  c #274E32",
"%  c #2C4D32",
"&  c #344633",
"*  c #324C33",
"=  c #354D39",
"-  c #394F3B",
";  c #275232",
":  c #2C5231",
">  c #325135",
",  c #35523A",
"<  c #3B523D",
"1  c #375C3B",
"2  c #38593A",
"3  c #40583E",
"4  c #3B5A40",
"5  c #445743",
"6  c #415B44",
"7  c #465C49",
"8  c #4C5F49",
"9  c #466349",
"0  c #4B614D",
"q  c #4A684E",
"w  c #4D6651",
"e  c #4F6D55",
"r  c #526C54",
"t  c #586A5C",
"y  c #507355",
"u  c #56735C",
"i  c #5D755E",
"p  c #5E7561",
"a  c #5A7860",
"s  c #677667",
"d  c #617B62",
"f  c #697B65",
"g  c #6A7D6B",
"h  c #6C7E72",
"j  c #658367",
"k  c #67806D",
"l  c #6B826E",
"z  c #6D8A74",
"x  c #748B76",
"c  c #778E7A",
"v  c #7B8D7C",
"b  c #7B917C",
"n  c #7F997E",
"m  c #80937D",
"M  c #818D81",
"N  c #829583",
"B  c #879885",
"V  c #8A9D89",
"C  c #8AA28C",
"Z  c #8EA88F",
"A  c #8FA692",
"S  c #98A794",
"D  c #91AB93",
"F  c #9BAD9B",
"G  c #96B095",
"H  c #9AB29C",
"J  c #9AB89E",
"K  c #A2AA9D",
"L  c #A0B19E",
"P  c #9FB1A2",
"I  c #A4B6A3",
"U  c #A6B6A9",
"Y  c #A9B5A9",
"T  c #AFBDAE",
"R  c #ACC2AD",
"E  c #ACC1B0",
"W  c #B2C3B3",
"Q  c #BBCBBA",
"!  c #BBD1BD",
"~  c #BDD3C1",
"^  c #C4D5C4",
"/  c #C7D7CC",
"(  c #CAD6CA",
")  c #C4DBC9",
"_  c #CCDBCC",
"`  c #C3E0C4",
"'  c #CEE5CE",
"]  c #D4E2D3",
"[  c #D7E5D8",
"{  c #D9E7D9",
"}  c #D5EED8",
"|  c #DAECDC",
" . c #D3F1D7",
".. c #DFF2DF",
"X. c #E0EEDD",
"o. c #E0F1DF",
"O. c #DFF1E1",
"+. c #E2EEE2",
"@. c #E3F4E4",
"#. c #EBF6EC",
"$. c #EBFEED",
"%. c #F0FFEE",
"&. c #EFFDF2",
"*. c #F2FFF2",
"=. c #F1FFF5",
"-. c #F3FFF5",
";. c #F3FFF6",
":. c #F6FFF5",
">. c #F5FFF6",
",. c #F4FFF7",
"<. c #F7FFF7",
"1. c #F6FFF6",
"2. c #F4FFF5",
"3. c #F9FBF6",
"4. c #F8FFF6",
"5. c #F9FFF6",
"6. c #F9FFF6",
"7. c #F7FFF8",
"8. c #F7FFF9",
"9. c #F7FFFA",
"0. c #F7FFFB",
"q. c #F7FFF9",
"w. c #FBFBF9",
"e. c gray98",
"r. c #FFFBFA",
"t. c #F8FFF8",
"y. c #F8FFF9",
"u. c #FBFFF9",
"i. c #F9FFFA",
"p. c #F9FFFB",
"a. c #FBFFFA",
"s. c #FAFFFB",
"d. c #FBFFFB",
"f. c #FBFDFA",
"g. c #FDFFF9",
"h. c #FDFDFB",
"j. c #FCFFFA",
"k. c #FCFFFB",
"l. c #FDFFFA",
"z. c #FEFFFA",
"x. c #FEFFFB",
"c. c #FFFFFB",
"v. c #FFFEFA",
"b. c #FDFCF8",
"n. c #FBFBFD",
"m. c #FFFBFF",
"M. c #FEFAFD",
"N. c #F9FFFD",
"B. c #FBFFFC",
"V. c #FBFFFD",
"C. c #FBFFFF",
"Z. c #FAFFFF",
"A. c #FBFDFC",
"S. c gray99",
"D. c #FDFDFD",
"F. c #FEFCFD",
"G. c #FFFCFD",
"H. c #FFFDFD",
"J. c #FDFFFC",
"K. c #FCFEFD",
"L. c #FCFFFD",
"P. c #FEFEFC",
"I. c #FFFEFD",
"U. c #FEFFFD",
"Y. c #FFFFFD",
"T. c #FCFDFF",
"R. c #FDFDFF",
"E. c #FFFDFE",
"W. c #FFFCFF",
"Q. c #FFFDFF",
"!. c #FFFCFE",
"~. c #FDFFFE",
"^. c #FCFFFF",
"/. c #FEFEFE",
"(. c #FEFEFF",
"). c #FFFEFF",
"_. c #FEFFFF",
"`. c white",
"'. c #FFFFFF",
/* pixels */
"`.`.`.`.`.`.`.`.`.`.`.`.`.`.`.`.`.`.`.`.h.`.`.n.n.`.`.`.F.`.`.`.F.`.`.n.n.n.`.`.h.`.h.`.`.`.F.`.`.`.`.`.`.`.`.`.`.`.`.`.`.`.`.`.",
"`.`.`.`.`.`.`.`.`.`.`.`.`.`.`.`.`.`.`.h.`.`.`.n.n.`.`.`.`.`.F.F.`.F.`.n.n.n.`.`.`.h.`.h.`.`.`.`.`.`.`.`.`.`.`.`.`.`.`.`.`.`.`.`.",
"`.`.`.`.`.`.`.`.`.`.`.`.`.`.`.`.`.`.`.`.`.`.`.`.`.w.`.w.`.`.n.`.F.`.`.`.n.`.n.`.`.`.`.`.`.`.`.`.`.`.`.`.`.`.`.`.`.`.`.`.`.`.`.`.",
"`.`.`.`.`.`.`.`.`.`.`.`.`.`.`.`.n.`.`.`.`.`.`.`.`.h.h.`.`.n.n.n.n.`.`.h.`.`.F.`.`.`.`.`.`.`.`.`.`.`.`.`.`.`.`.`.`.`.`.`.`.`.`.`.",
"`.`.`.`.`.`.`.`.`.`.`.`.`.`.`.`.`.`.`.`.`.`.`.h.`.h.w.`.S.`.n.0.y.h.3.h.`.`.F.F.`.`.`.n.`.`.`.`.`.`.`.`.`.`.`.`.`.`.`.`.`.`.`.`.",
"`.`.`.`.`.`.`.`.`.`.`.`.`.`.`.`.`.`.`.`.`.h.`.`.y.`.`.F.`.1.y.y.1.3.h.h.`.F.M.`.`.`.`.`.`.`.`.`.`.`.`.`.`.`.`.`.`.`.`.`.`.`.`.`.",
"`.`.`.`.`.`.`.`.`.`.`.`.`.`.`.`.`.`.`.`.h.h.h.`.`.`.`.n.y.y.{ S N R *.h.`.F.F.F.`.n.`.`.`.h.`.h.`.`.`.`.`.`.`.`.`.`.`.`.`.`.`.`.",
"`.`.`.`.`.`.`.`.`.`.`.`.`.`.`.`.`.`.`.`.h.h.`.`.`.F.F.`.h.#.i * % = c 3.h.`.F.F.`.`.`.`.h.`.h.`.`.`.`.`.`.`.`.`.`.`.`.`.`.`.`.`.",
"`.`.`.`.`.`.`.`.`.`.`.`.S.`.`.S.`.h.h.h.y.h.n.`.F.F.`.`.y.^ * o % : = ( y.`.`.`.`.`.`.`.`.h.`.h.`.`.`.`.`.`.`.`.`.`.`.`.`.`.`.`.",
"`.`.`.`.`.`.`.`.`.`.`.`.`.`.`.`.`.y.y.y.y.`.`.`.F.F.`.h.y.Q o # # @ % f 3.y.`.n.`.`.`.`.`.h.h.`.`.`.`.`.`.`.`.`.`.`.`.`.`.`.`.`.",
"`.`.`.`.`.`.`.`.`.`.`.`.`.`.S.1.~ = s 1.y.`.`.`.F.`.h.3.*.` ; # @   % = 1.8.y.`.`.`.`.`.`.`.h.`.`.`.`.`.`.`.`.`.`.`.`.`.`.`.`.`.",
"`.`.`.`.`.`.`.`.`.`.`.`.`.`.`.y.% o = T `.`.`.h.y.1.o.b , o ;   @ @ X > ) 8.n.`.`.`.`.`.`.`.`.h.`.`.`.`.`.`.`.`.`.`.`.`.`.`.`.`.",
"`.`.`.`.`.`.`.`.`.`.F.`.`.`.`.*.o @ * 7 y.y.y.1.^ w o o o o # # @ ; X % x 8.y.`.`.`.`.`.`.`.`.`.`.`.`.`.`.`.`.`.`.`.`.`.`.`.`.`.",
"`.`.`.`.`.`.`.`.n.`.`.`.`.`.e.#.# @ o < 1.-.W < = X o # # . X @ @ @ # o 6 -.3.`.`.`.`.`.`.`.`.`.`.`.`.`.`.`.`.`.`.`.`.`.`.`.`.`.",
"`.`.`.`.`.`.`.`.`.`.`.`.F.`.`.-.o . o o  .4 % % o @ # + @ # # # @ @ o o * | 0.y.h.`.`.`.`.`.`.`.`.`.`.`.`.`.`.`.`.`.`.`.`.`.`.`.",
"`.`.`.`.`.`.`.`.`.`.`.`.`.`.`.y.o # # o ; # @ @ @ # o O # > y 1 @ + # o % H 0.n.`.h.h.`.`.`.`.`.`.`.`.`.`.`.`.`.`.`.`.`.`.`.`.`.",
"`.`.`.`.`.`.`.`.`.`.`.`.`.`.`.y.* # # X @ X # # o % 8 S o.1.1.c o @ @ # $ u -.y.h.`.h.h.h.`.n.`.`.`.`.`.`.`.`.`.`.`.`.`.`.`.`.`.",
"`.`.`.`.`.`.`.`.`.`.`.`.`.`.`.y., # # # ; # % e R O.3.3.1.3.@.c : . + @ X < -.`.`.`.w.b.h.`.n.`.`.`.`.`.`.`.`.`.`.`.`.`.`.`.`.`.",
"`.`.`.`.`.`.`.`.`.`.`.`.`.`.`.y.9 @ o o : ~ 1.1.8.0.*.@.J q = o X . @ # o , 3.y.`.F.`.`.h.`.`.`.`.`.`.`.`.`.`.`.`.`.`.`.`.`.`.`.",
"`.`.`.`.`.`.`.`.`.`.`.`.`.`.`.y.j > o % = *.1.8.$.P 0 = o # @ @ @ # X X = 8 y.h.`.F.h.`.`.h.`.`.`.`.`.`.`.`.`.`.`.`.`.`.`.`.`.`.",
"`.`.`.`.`.`.`.`.`.`.`.`.`.`.`.y.J o o o * F R i = * o o @ @ + + @ @ ; % * T h.`.`.`.`.n.`.h.`.`.`.`.`.`.`.`.`.`.`.`.`.`.`.`.`.`.",
"`.`.`.`.`.`.`.`.`.`.`.`.`.`.`.y.) o % # o o o + # o # # # @ @ @ : % * < W *.h.h.`.n.n.n.y.`.y.`.`.`.`.`.`.`.`.`.`.`.`.`.`.`.`.`.",
"`.`.`.`.`.`.`.`.`.`.`.`.`.`.`.y.$.# @ # + @ + + + . # . @ ; # o < g ~ *.1.8.8.`.n.3.n.n.h.`.F.`.`.`.`.`.`.`.`.`.`.`.`.`.`.`.`.`.",
"`.`.`.`.`.`.`.`.`.`.`.`.`.`.`.y.*.b % # + @ + + # . o * * < c ~ &.1.8.*.1.&.^ v f M / 3.h.`.F.F.`.`.`.`.`.`.`.`.`.`.`.`.`.`.`.`.",
"`.`.`.`.`.`.`.`.`.`.`.`.`.`.`.`.`.#.t * o @ @ # # o 3 V _ n.y.n.y.1.@.R i , o o % * 8 ] S.`.`.`.`.`.`.`.`.`.`.`.`.`.`.`.`.`.`.`.",
"`.`.`.`.`.`.`.`.`.`.`.`.`.`.`.`.`.`.8./ l w 9 u Z ' $.3.y.y.n.-.W w * O # @ # # # % = F 8.n.`.`.`.`.`.`.`.`.`.`.`.`.`.`.`.`.`.`.",
"`.`.`.`.`.`.`.`.`.`.`.`.`.`.`.`.y.n.`.`.n.y.n.y.,.8.y.3.8.O.b > O o o # @ + + + . o = I y.h.`.`.F.`.`.`.`.`.`.`.`.`.`.`.`.`.`.`.",
"`.`.`.`.`.`.`.`.`.`.`.`.`.`.`.`.`.n.`.`.`.`.`.`.n.n.8.] p % % # o . # . + # + @ X o 6 ] `.`.`.F.`.`.`.`.`.`.`.`.`.`.`.`.`.`.`.`.",
"`.`.`.`.`.`.`.`.`.`.`.`.`.`.`.`.`.`.`.`.y.y.n.y.8.Q 7 % % : @ @ @ # @ @ # X # . o r _ y.y.`.`.`.`.`.`.`.`.`.`.`.`.`.`.`.`.`.`.`.",
"`.`.`.`.`.`.`.`.`.`.`.`.`.`.`.`.`.n.`.n.y.y.*.I - % % # @ @ # @ + # o % * 6 d H ] 1.h.n.`.n.`.`.`.`.`.`.`.`.`.`.`.`.`.`.`.`.`.`.",
"`.`.`.`.`.`.`.`.`.`.`.`.`.`.`.`.F.`.h.8.-.D = o # o # . # # @ # ; ; z E X.h.b.b.`.y.`.`.F.`.h.h.`.`.`.`.`.`.`.`.`.`.`.`.`.`.`.`.",
"`.`.`.`.`.`.`.`.`.`.`.`.`.`.`.`.F.`.1.Q = o X # X # o o o o @ @ X $ $.8.`.`.h.`.w.`.`.F.`.`.`.S.`.`.`.`.`.`.`.`.`.`.`.`.`.`.`.`.",
"`.`.`.`.`.`.`.`.`.`.`.`.`.`.`.`.y.&.e o o o o o # % o 6 V ' o ; ; $ ) y.`.`.w.`.`.h.`.`.`.`.n.n.`.`.`.`.`.`.`.`.`.`.`.`.`.`.`.`.",
"`.`.`.`.`.`.`.`.`.`.`.`.`.`.`.`.{ = # @ # o * * 6 A @.3.3.%.% o $ $ U y.h.y.h.h.h.h.`.`.F.`.n.n.`.`.`.`.`.`.`.`.`.`.`.`.`.`.`.`.",
"`.`.`.`.`.`.`.`.`.`.`.`.`.`.`.y.& % o # = 5 U $.8.0.3.3.3.' o # o o l 1.8.8.1.| | 1.h.`.`.`.`.`.`.`.`.`.`.`.`.`.`.`.`.`.`.`.`.`.",
"`.`.`.`.`.`.`.`.`.`.`.`.`.`.`.y.& % > D o.3.n.n.n.`.`.`.h.( : # # o 4 } A 9 , = % < Q 3.S.F.F.`.`.`.`.`.`.`.`.`.`.`.`.`.`.`.`.`.",
"`.`.`.`.`.`.`.`.`.`.`.`.`.`.`.`.n.y.y.y.h.3.`.`.n.n.`.`.h._ X # + + # % % $ ; X X % - 1.h.`.`.`.`.`.`.`.`.`.`.`.`.`.`.`.`.`.`.`.",
"`.`.`.`.`.`.`.`.`.`.`.`.`.`.`.`.`.`.h.h.h.`.`.`.n.`.`.`.3.O.: + + + @ # # @ @ ; @ o % ( h.y.`.n.`.`.`.`.`.`.`.`.`.`.`.`.`.`.`.`.",
"`.`.`.`.`.`.`.`.`.`.`.`.`.`.`.`.`.F.`.h.b.h.n.`.`.`.`.n.y.! > + + + X ; o # @ ; # o > R h.`.`.`.`.`.`.`.`.`.`.`.`.`.`.`.`.`.`.`.",
"`.`.`.`.`.`.`.`.`.`.`.`.`.`.`.`.`.`.h.h.h.h.y.`.S.`.`.*.h % @ @ + # @ o * o @ + . # o C 3.h.`.n.`.`.`.`.`.`.`.`.`.`.`.`.`.`.`.`.",
"`.`.`.`.`.`.`.`.`.`.`.`.`.`.`.`.`.`.`.y.`.y.`.`.h.b.{ < % % # o # # $ % * , 2 + + + # u 1.h.`.`.`.`.`.`.`.`.`.`.`.`.`.`.`.`.`.`.",
"`.`.`.`.`.`.`.`.`.`.`.`.`.`.`.`.y.`.n.`.`.`.`.h.b.L * % X ; o o o % , k ^ $.m # . # @ 4 1.y.`.`.`.`.`.`.`.`.`.`.`.`.`.`.`.`.`.`.",
"`.`.`.`.`.`.`.`.`.`.`.`.`.`.`.`.F.`.`.F.`.`.n.y.m O # @ X ; o = p ~ =.0.b.b.L O @ # : % 1.h.`.`.`.`.`.`.`.`.`.`.`.`.`.`.`.`.`.`.",
"`.`.`.`.`.`.`.`.`.`.`.`.`.`.`.`.F.`.F.F.`.n.`.^ O o + # X , m @.8.n.0.0.b.b.^ O # @ @ % { h.`.`.`.`.`.`.`.`.`.`.`.`.`.`.`.`.`.`.",
"`.`.`.`.`.`.`.`.`.`.`.`.`.`.`.`.`.8.y.`.S.`.y.K & O O 9 ~ &.`.h.`.3.n.n.`.y.] O # @ X % E `.h.`.`.`.`.`.`.`.`.`.`.`.`.`.`.`.`.`.",
"`.`.`.`.`.`.`.`.`.`.`.`.`.`.`.`.`.`.h.h.`.`.`.3.N B $.1.0.n.`.`.h.`.`.n.`.`.:.- @ @ ; % N 0.n.`.`.`.`.`.`.`.`.`.`.`.`.`.`.`.`.`.",
"`.`.`.`.`.`.`.`.`.`.`.`.`.`.`.`.S.`.w.`.`.F.`.`.n.y.8.n.n.`.`.h.h.b.`.n.`.n.y.f # @ @ o w 0.n.n.`.`.`.`.`.`.`.`.`.`.`.`.`.`.`.`.",
"`.`.`.`.`.`.`.`.`.`.`.`.`.`.`.`.F.`.`.w.F.`.F.`.`.n.`.`.`.`.w.h.h.h.`.`.n.`.b.! o X ; : = ,.n.`.`.`.`.`.`.`.`.`.`.`.`.`.`.`.`.`.",
"`.`.`.`.`.`.`.`.`.`.`.`.`.`.`.`.`.F.`.`.`.`.`.`.`.`.`.`.`.`.`.`.h.`.`.`.`.`.b.*., o $ $ % ,.h.h.`.`.`.`.`.`.`.`.`.`.`.`.`.`.`.`.",
"`.`.`.`.`.`.`.`.`.`.`.`.`.`.`.`.`.`.`.`.`.`.`.`.`.`.`.`.`.`.`.`.h.`.F.F.`.`.h.1.V % o $ , @.h.h.`.`.`.`.`.`.`.`.`.`.`.`.`.`.`.`.",
"`.`.`.`.`.`.`.`.`.`.`.`.`.`.`.`.`.`.`.`.`.`.`.`.`.`.`.`.`.`.`.`.`.`.`.`.`.`.h.y.$.= & % = &.`.`.`.`.`.`.`.`.`.`.`.`.`.`.`.`.`.`.",
"`.`.`.`.`.`.`.`.`.`.`.`.`.`.`.`.`.`.`.`.`.`.`.`.`.`.`.`.`.`.`.`.`.`.`.`.`.`.`.h.1.) 4 & U 0.h.`.`.`.`.`.`.`.`.`.`.`.`.`.`.`.`.`.",
"`.`.`.`.`.`.`.`.`.`.`.`.`.`.`.`.`.`.`.`.`.`.`.`.`.`.`.`.`.`.`.`.`.`.`.`.`.`.`.h.h.3.$.+.8.y.`.`.`.`.`.`.`.`.`.`.`.`.`.`.`.`.`.`.",
"`.`.`.`.`.`.`.`.`.`.`.`.`.`.`.`.`.`.`.`.`.`.`.`.`.`.`.`.`.`.`.`.F.`.`.`.`.n.n.y.y.`.`.`.h.`.`.`.`.`.`.`.`.`.`.`.`.`.`.`.`.`.`.`.",
"`.`.`.`.`.`.`.`.`.`.`.`.`.`.`.`.`.`.`.`.`.`.`.`.`.`.`.`.`.`.`.`.F.F.`.`.`.`.`.`.`.F.`.`.`.`.h.`.`.`.`.`.`.`.`.`.`.`.`.`.`.`.`.`.",
"`.`.`.`.`.`.`.`.`.`.`.`.`.`.`.`.`.`.`.`.`.`.`.`.`.`.`.`.`.`.`.`.`.`.F.`.`.`.`.`.`.`.`.F.`.`.h.h.`.`.`.`.`.`.`.`.`.`.`.`.`.`.`.`.",
"`.`.`.`.`.`.`.`.`.`.`.`.`.`.`.`.`.`.`.`.`.`.`.`.`.`.`.`.`.`.`.`.`.`.`.h.`.`.`.`.`.F.`.F.`.`.`.h.`.`.`.`.`.`.`.`.`.`.`.`.`.`.`.`.",
"`.`.`.`.`.`.`.`.`.`.`.`.`.`.`.`.`.`.`.`.`.`.`.`.`.`.`.`.`.`.`.`.`.`.`.h.h.h.h.`.`.`.`.`.`.`.h.`.`.`.`.`.`.`.`.`.`.`.`.`.`.`.`.`.",
"`.`.`.`.`.`.`.`.`.`.`.`.`.`.`.`.`.`.`.`.`.`.`.`.`.`.`.`.`.`.`.`.`.`.`.`.`.h.`.`.`.`.`.`.`.`.`.`.`.`.`.`.`.`.`.`.`.`.`.`.`.`.`.`.",
"`.`.`.`.`.`.`.`.`.`.`.`.`.`.`.`.`.`.`.`.`.`.`.`.`.`.`.`.`.`.`.`.`.`.`.h.h.`.h.`.`.`.`.`.`.`.`.n.`.`.`.`.`.`.`.`.`.`.`.`.`.`.`.`.",
"`.`.`.`.`.`.`.`.`.`.`.`.`.`.`.`.`.`.`.`.`.`.`.`.`.`.`.`.`.`.`.`.`.`.F.`.`.`.`.`.n.`.`.`.`.`.n.`.`.`.`.`.`.`.`.`.`.`.`.`.`.`.`.`.",
"`.`.`.`.`.`.`.`.`.`.`.`.`.`.`.`.`.`.`.`.`.`.`.`.`.`.`.`.`.`.`.`.`.`.`.`.`.`.`.n.h.`.`.`.`.`.`.`.`.`.`.`.`.`.`.`.`.`.`.`.`.`.`.`.",
"`.`.`.`.`.`.`.`.`.`.`.`.`.`.`.`.`.`.`.`.`.`.`.`.`.`.`.`.`.`.`.`.`.`.`.`.`.`.n.n.y.`.`.`.`.`.`.`.`.`.`.`.`.`.`.`.`.`.`.`.`.`.`.`.",
"`.`.`.`.`.`.`.`.`.`.`.`.`.`.`.`.`.`.`.`.`.`.`.`.`.`.`.`.`.`.`.`.`.`.`.`.`.`.n.n.`.`.w.F.`.`.`.n.`.`.`.`.`.`.`.`.`.`.`.`.`.`.`.`."
};