/* XPM */
static char *_9afaf7589b4494690e439ff6c727b46alTTmwpCbU2wUsKv[] = {
/* columns rows colors chars-per-pixel */
"64 64 230 2 ",
"   c None",
".  c #0D0D0B",
"X  c #0F0B06",
"o  c #110E0A",
"O  c #15110D",
"+  c #1A130F",
"@  c #0F0F11",
"#  c #0F1013",
"$  c #121214",
"%  c #1C1512",
"&  c #1E1914",
"*  c #1C1A1A",
"=  c #0F1012",
"-  c #221A15",
";  c #241D1A",
":  c #271C17",
">  c #26211C",
",  c #2B221D",
"<  c #32251E",
"1  c #232326",
"2  c #2C2521",
"3  c #2E2923",
"4  c #25252A",
"5  c #292A2D",
"6  c #27282E",
"7  c #342721",
"8  c #332B24",
"9  c #3B2B24",
"0  c #352E29",
"q  c #392C26",
"w  c #3B322C",
"e  c #393128",
"r  c #2C2C32",
"t  c #252734",
"y  c #3D3531",
"u  c #373638",
"i  c #1F1F24",
"p  c #442F28",
"a  c #44332C",
"s  c #4A372D",
"d  c #423A35",
"f  c #463E39",
"g  c #493B35",
"h  c #533B33",
"j  c #543E39",
"k  c #583934",
"l  c #633E3C",
"z  c #4B423D",
"x  c #47413C",
"c  c #53443C",
"v  c #5B443B",
"b  c #5A483D",
"n  c #63473D",
"m  c #3D3D42",
"M  c #434245",
"N  c #4D4542",
"B  c #494749",
"V  c #5D4C44",
"C  c #544A46",
"Z  c #59514D",
"A  c #4A4B54",
"S  c #545355",
"D  c #624B43",
"F  c #6B4D43",
"G  c #684542",
"H  c #645146",
"J  c #6C5446",
"K  c #64544C",
"L  c #6C544B",
"P  c #73554A",
"I  c #75594C",
"U  c #795B4E",
"Y  c #78544D",
"T  c #6B5853",
"R  c #735C55",
"E  c #7B5C53",
"W  c #7B5753",
"Q  c #754D4B",
"!  c #7D6153",
"~  c #7B635C",
"^  c #76645C",
"/  c #6D605A",
"(  c #5B5C62",
")  c #7D6961",
"_  c #6F6C6F",
"`  c #815D55",
"'  c #835C59",
"]  c #836356",
"[  c #83655A",
"{  c #89665E",
"}  c #8B6B5D",
"|  c #85695C",
" . c #906B5F",
".. c #8C6C63",
"X. c #886963",
"o. c #936C66",
"O. c #996D6A",
"+. c #8B736B",
"@. c #897369",
"#. c #927364",
"$. c #94746B",
"%. c #9B746D",
"&. c #95786C",
"*. c #9C7C6D",
"=. c #987867",
"-. c #947B74",
";. c #9B7C73",
":. c #987976",
">. c #8E7973",
",. c #A07A6E",
"<. c #A37673",
"1. c #A27C74",
"2. c #A77C7A",
"3. c #B17F7F",
"4. c #9D8175",
"5. c #9C837A",
"6. c #96827A",
"7. c #A38374",
"8. c #A3837A",
"9. c #AB847D",
"0. c #AB8B7D",
"q. c #A6897A",
"w. c #B08C7D",
"e. c #B3907E",
"r. c #7E7B80",
"t. c #7F8084",
"y. c #898689",
"u. c #969599",
"i. c #988683",
"p. c #A58C83",
"a. c #AB8C83",
"s. c #A98885",
"d. c #B38B84",
"f. c #B58B89",
"g. c #AC9185",
"h. c #AE928B",
"j. c #AD998B",
"k. c #A69286",
"l. c #B39285",
"z. c #B3948C",
"x. c #BC948C",
"c. c #BB9B8C",
"v. c #B89988",
"b. c #AD9895",
"n. c #B49692",
"m. c #B49B94",
"M. c #BB9C93",
"N. c #BC9D9A",
"B. c #BB9695",
"V. c #BB8F92",
"C. c #BDA294",
"Z. c #BDA29B",
"A. c #B8A397",
"S. c #9E9FA3",
"D. c #A6A3A7",
"F. c #B8A7A5",
"G. c #AEAEB3",
"H. c #B5B3B5",
"J. c #B3AFB1",
"K. c #C29C95",
"L. c #C29D99",
"P. c #C59A94",
"I. c #C09E8D",
"U. c #C4A394",
"Y. c #C3A59B",
"T. c #C9A49C",
"R. c #C3AB9D",
"E. c #CCAB9D",
"W. c #C7A797",
"Q. c #D1AD9F",
"!. c #C3A18F",
"~. c #C79EA2",
"^. c #C4A5A2",
"/. c #CBA5A2",
"(. c #C4AAA3",
"). c #CCACA3",
"_. c #CCADAB",
"`. c #C4ABA9",
"'. c #D2AEA4",
"]. c #D3ADAA",
"[. c #D0A6A3",
"{. c #C6B1A4",
"}. c #CCB2A5",
"|. c #CCB4AA",
" X c #CEBAAD",
".X c #D3B3A5",
"XX c #D5B4AB",
"oX c #D9B5AC",
"OX c #D4B9AD",
"+X c #DABBAD",
"@X c #CBBAB5",
"#X c #D5B5B2",
"$X c #D4BCB3",
"%X c #DBBCB4",
"&X c #DBBDB9",
"*X c #D8B9B4",
"=X c #E0BEB6",
"-X c #D3C2B5",
";X c #DDC2B4",
":X c #D5C3BA",
">X c #DDC3BC",
",X c #DDC9BB",
"<X c #D7C8BD",
"1X c #E1C2B5",
"2X c #E1C4BC",
"3X c #E3CBBD",
"4X c #BFC1C4",
"5X c #CACACC",
"6X c #CAC6C6",
"7X c #DACAC5",
"8X c #CDCED1",
"9X c #D3D3D4",
"0X c #D9D7D8",
"qX c #CFD0D2",
"wX c #E1C5C1",
"eX c #E4CBC3",
"rX c #E5CDC9",
"tX c #E8CFC7",
"yX c #E6D0C3",
"uX c #E9D3C5",
"iX c #E6D2CC",
"pX c #EBD5CC",
"aX c #EED9CD",
"sX c #F0DBCE",
"dX c #ECD6D0",
"fX c #EEDAD2",
"gX c #EBD8D4",
"hX c #F0DCD2",
"jX c #F0DFD8",
"kX c #F0E0DA",
/* pixels */
"                                        y d d d y 0 > & & % O * , 3 2 2 3 , > 2 2 4 2 2 u M B Z A                               ",
"                                    x   0 0 < e , , , > + + & , 2 8 8 , , , > > , 0 8 3 0 d x Z Z N                             ",
"                                  e e x w , , , > 3 8 > O X % : ; , 2 : - > > > - , , 0 , 3 y z N N                             ",
"                                8 - < , , 0 e 8 3 0 e & O O + % + - , - % ; ; ; * % & : & & 3 0 0 w x                           ",
"                              z < - & - < e e : - , - + + , , + + - : ; ; : - % - % + % + O - , * 2 N                           ",
"                            d x , - & & > , , - + - % + - , 9 < : : : 7 9 < , : : - % - + O + > % ; y z N C N z C               ",
"                            8 < - & + O O O + - > , < < < < < 9 7 p g j j c k j s p < , : % + - % % ; 2 y C C C C               ",
"                            , % % + X O O O - : a c c c v v n n L W +.:.-.-.:.-.@.X.~ D a < - & O % o - 2 y f c C               ",
"                          , & O & O . o O & < v I | X.#.-.4.q.a.n.^.#X$X*X2X>X&X$X|.|.j.@.H e - % O + , 8 3 8 g z N             ",
"                        3 & O o + O . o - 9 v ] 4.0.v.U.).#X%X%XwXpXaXhXhXhXhXaXpXuXuXyX-XA.R , % % - 2 d g w w f N             ",
"                    x y , + X X o X X % p n } q.v.I.Q.OX2X3XeXiXsXsXhXkXsXhXsXsXaXuXuXuXuX,Xj.b : % ; , 8 w y d x C N           ",
"                      d < & O . X X o < n } 7.e.!.Q.+X1XeXiXaXfXsXkXsXsXsXsXsXsXaXuXuXuXyX3X-X@.e - ; y z d 0 0 q 8             ",
"                        3 , * . X X - v ] 7.e.!.Q..X1X3XtXpXaXfXhXkXhXhXhXaXaXaXaX3XuXuX3XuX3XA.V , > 8 d d 8 ; > 8 y           ",
"                      y e , . . X + p I  .7.v.W..X;X1X3XpXpXaXfXaXaXfXhXhXhXhXaXsXsXuXuX3X3X3X{.@.y - ; 2 8 8 8 8 e y           ",
"                      x d & . . o : v ] ,.e.I.W.oX+X1X3XtXtXdXdXfXdXfXfXhXhXhXaXaXuXuXuXuX3X3X}.6.V 2 ; > , 7 0 0 y f           ",
"                          > o . + p n } ,.e.I.Q..X+X1X3XrXiXpXdXaXaXsXfXsXdXsXaXuXaXuX3X3X3X3XOXj./ e % & * ; , , w             ",
"                          * o O > s ! } 7.e.e.E.Q.+X=X2XtXpXiXdXtXpXdXsXpXsXpXaX3XaXuXaX3X3X,X}.j.@.z > $ o - - ; 2             ",
"                          - O + < b ] } 7.e.I.!.Q.oX+X3XtXpXpXdXpXpXdXpXpXpXpXpXsXaXsX3X3X3X,X{.j._ c , % $ - ; > 8             ",
"                          > & & e n #.=.q.e.e.!.Q..X=X3XiXpXdXpXpXpXdXdXpXpXaXpXsXsXaXuXaX3X,X}.k.) c 3 ; % ; ; , 0             ",
"                          > & & s ! #.7.e.e.e.W..X+X2XyXpXdXpXdXpXpXdXdXhXsXdXaXaXsXsXsXsXuX3X Xk.) c 0 , % ; > 2               ",
"                          > & > c | #.7.e.e.e.W..X;XeXiXpXdXdXdXpXdXdXdXfXjXgXhXaXaXsXaXaXuX3X;Xj.^ x 3 > & & > 0               ",
"                            - < b | #.7.q.e.c.W.XX,XeXiXdXgXdXdXpXdXdXhXkXkXkXjXsXaXaXaXuXaX3X3X-Xk.K e < > % -                 ",
"                            & 8 n } #.4.e.v.!.}.#X2XwXrXiXdXpXpXdXdXgXjXkXkXkXfXgXgXdXuXuX3X3X3X-X}.6.c e > & ,                 ",
"                            - 9 J ! } 4.4.e.C.R.XX&X=XwXrXrXrXiXdXdXdXdXdX7X$X X`.:XuXuX3X3X3X,X;X-X7.b e < > 8                 ",
"                            ; 8 J ! ! ! ! E [ >.h.Y.XX%X2X7X=XwXwXwXwX|.s.$...+.s.Z.).%X2X2X3X;X;X+Xj.K g a 8 a                 ",
"                            , 9 J ! I I W P F F W &.z./.#X*X&XwXwX=X'.s.$.o.;.h.M.C.n.Y.R.;X3X2X+XOXj.H N a w f                 ",
"                            8 9 J U J U | &.8.4.;.$.$.q.U.).%XwX=X].K.x.C.T.XX&X%X#X.X).}.#X2X;X+X.Xz.V C h k k                 ",
"                            0 q n U J U | 8.d.N.(.C.1.X.1.Y.>XiXwX/.c.I.x.z.M.).#X%XOX).XXOX;X;X+X.Xg.V D F l '                 ",
"                              q n ! U U ] } @.X.6.p.:.' E M.2XgXiXQ.9.,.O.+.T T X.s.L..XOX;X1X;X.X.Xk.V T ;.3.V.                ",
"                              x b ! ] n n n E V K i.:.E W s.2XgXaXoXd.<.9.M.i.6.n.f.s.E.+X1X2X+X.X.Xq.H E /.L.].                ",
"                              Z b U } U U ] ,.;.p.@XN.s.o.2.oXpXiX2X.XP.f.P.].>X>X%X%X%X1X3X1XoXE.E.4.b o.#X].%X                ",
"                              Z b ! } 4.7.=.q.x.L.^.~.n.$.2.].tXeX2X+XP.f.f.x./.#X2XiXpXuX3X1X.XE.U.4.n <.oX*X                  ",
"                              V D ]  .,.9.8.9.f.c.M.L.l.<.3.].wXwX2XeXeX$X_._.$X7XiXiXdXrXwX=XQ.W.U.%.W V.=X#X                  ",
"                                L `  .<.9.w.x.M.Y.}./.f.%.<.[.wXwX2XyXgXiXrX7XrXiXiXrXrXwX=XoXQ.P.!.&.1.[.=X#X                  ",
"                                K !  .,.w.x.P.T._.XXP.9.%.<.[.rXwX=XtXiXrXrXrXrXdXiXrXwX*XoX'.Q.Y.v.;.K.*X%X_.                  ",
"                                  ! ' O.3.I.P.'..X).I.,.o.<.[.rXwX=X=XwXrX7XeXrXiXiXrXwX=X].oX'.U.v.z.OX%X(.                    ",
"                                  E { O.3.x.P.[.).T.f.#.' <.[.rXwX#X*XoX%X=XwXwXrXrXrXwX=X+XoX.XU.K.R.>X%X@X                    ",
"                                  R ] =.9.P.T.E.T.M.2...o.2.[.rXwX=X=X*XT.L.].*XwXeXrXeX2X%X.XQ.Y.U.).7XeX:X                    ",
"                                  P ` =.9.x.P.U.c.9.O.{ O.%.N.*X#X].#X#X].P.V.T.oX&X2X=X=XoXQ.E.T.Y.}.eX>X                      ",
"                                  P U o.1.w.x.x.9.1.O.Y G W 2.~.~.<.<.P.#X#Xx.d.L.].#XOX.X).E.E.W.U.(.>X@X                      ",
"                                  L I ] #.9.9.w.1.:.O.W l l W O.3.V.B._.*X&X`.s.9.M.T.T.W.U.W.E.Y.M.m.                          ",
"                                  L P P ] #.1.2.;.%.%.o.E Q Q X.2.~.#X&X*X*X#XY.s.2.d.c.c.c.W.W.U.c.h.                          ",
"                                    I P P } *.1.%.$.;.%.$.%.2.V.N._.&X7X7X*X#X#X(.c.d.c.C.U.E.E.U.c.k.                          ",
"                                    I I I ] $.&.X.~ o.:.;.s.B.^._._._.#X#X#X`.^.(.).Y.).E.E.E.W.U.z.p.                          ",
"                                    J U ` #.4.4.[ G G W ' X.$.s.V.V.f.s.i.O.>.O.s./.}.+X.X).E.W.c.k.k.                          ",
"                                    L I ` } e.l.1.P j l ~ :.h.b.F.@XF.~.V.3.V.~.z.R.OX-X}.}.W.c.l.q.b.                          ",
"                                      I U ] q.C.f.:.' Q ' O.3.f.V.~.~.~.~._.&XwX$X}.$XOX}.E.C.l.a.;.F.y.                        ",
"                                      L I U #.v.P.2.' ' ' O.<.3.f.V.~.~._.6X7X7X-XOX}.R.W.W.g.0.8.;.D.u.M                       ",
"                                        L I U 4.e.7.#.! ` ..%.1.2.h.Z.F.-X<X<X-X-X}.C.C.R.c.p.8.;.p.b.D.B                       ",
"                                          J P ! 4.7.=.} } $.7.8.a.A.{.-X-X-X-X-X-X{.C.C.C.g.q.4.a.h.b.J.M B                     ",
"                                          H J P ! 4.#.#.&.8.0.j.F._.-X<X-X-X-X-X}.{.R.R.v.q.;.8.M.b.F.H.M M                     ",
"                                            H I I | #.=.7.q.g.C.^.|.:X-X-X-X-X-X{.R.C.C.k.4.8.M.Z.b.@XH.M M                     ",
"                                            z K n ! } 4.7.q.g.C.^.`.@X$X-X-X-X{.C.A.j.j.4.7.n.Z.N.b.qXJ.M M                     ",
"                                          5 c V n J ! 4.4.q.g.j.N.Z.`.{.A.-XA.j.e.0.q.6.5.z.Y.Y.M.F.0XD.M M                     ",
"                                          4 S V b b n ) } 4.7.e.n.n.m.A.A.A.j.6.6.4.6.4.z.C.R.U.m.6X0XD.m M                     ",
"                                        2 1 / Z z v n J ! ) @.7.k.a.p.k.k.0.6.6.6.6.4.j.N.Y.Z.n.F.9X0Xu.m m                     ",
"                                        i 1 _ / p k v V T R [ >.:.-.-.>.>.@.@.+.+.4.z.Z.R.R.B.h.6X9X0Xy.u u r                   ",
"                                      i & 5 y._ h p j V K T T R ) ) ) ~ ^ ~ X.@.4.z.C.R.(.N.h.F.8X9XqXy.r 5 4 1 4               ",
"                                  $ $ $ = u y.y.V p k v D T T T T T R ^ ~ ~ @.;.j.A.Z.(.Z.n.h.@X9X9X8X_ 5 5 4 4 1 1             ",
"                              $ $ # # # . m u.u.R k k n F L R R ) ) ) ) X.@.5.a.C.Z.`.(.N.h.N.5X8X8X5X_ 5 r 5 4 1 1 1 6 u       ",
"                          $ $ $ @ . @ . @ M S.D.y.G G G F P P E ~ ' ~ [ X.:.a.z.N.F.(.Z.z.b.H.8X8X8X4XS r 5 r 5 4 4 1 6 ( A ( t ",
"                    $ $ $ $ # @ . . . . @ m S.G.D.E F P Y Y U E E | X.+.;.p.h.m.Z.F.Z.M.h.J.5X5X8X8XH.M 5 5 5 5 5 4 4 4 A m A t ",
"                $ $ $ $ # @ @ @ . . . = @ A S.G.G.i.W ' ' ` ] ' X.o.$.;.8.a.h.n.F.N.m.h.b.6X5X5X5X5XD.m 5 5 4 5 4 5 4 i A A A t ",
"            * $ $ $ $ # # @ @ @ . . . # $ A S.G.H.D.X.X...X.{ { ..$.:.8.p.a.j.n.m.m.b.h.H.6X5X5X5X5Xu.u r 5 5 5 4 5 4 i t t t t "
};
